<?xml version="1.0" encoding="UTF-8" standalone="no"?>
<!DOCTYPE svg  PUBLIC '-//W3C//DTD SVG 1.1//EN'  'http://www.w3.org/Graphics/SVG/1.1/DTD/svg11.dtd'>
<svg xmlns="http://www.w3.org/2000/svg">
<defs>
<font id="ALSStory-Bold" horiz-adv-x="600">
<font-face underline-position="-50" font-weight="700" descent="-200" panose-1="2 0 8 3 4 0 0 2 0 4" units-per-em="1000" unicode-range="U+0020-F6DC" bbox="-67 -247 1070 926" x-height="537" underline-thickness="50" font-family="ALSStory" ascent="800" cap-height="706"/>
<missing-glyph horiz-adv-x="880"/>
<glyph glyph-name=".notdef" horiz-adv-x="880"/>
<glyph glyph-name=".null" horiz-adv-x="0"/>
<glyph glyph-name="nonmarkingreturn" horiz-adv-x="333"/>
<glyph glyph-name="space" horiz-adv-x="230" unicode=" "/>
<glyph glyph-name="exclam" horiz-adv-x="328" unicode="!" d="M79 64q0 85 85 85t85 -85t-85 -85t-85 85zM107 202l-20 504h155l-21 -504h-114z"/>
<glyph glyph-name="quotedbl" horiz-adv-x="429" unicode='&quot;' d="M241 700h128l-18 -248h-93zM60 700h127l-18 -248h-93z"/>
<glyph glyph-name="numbersign" horiz-adv-x="634" unicode="#" d="M269 412l-19 -141h106l18 141h-105zM385 496l27 203h108l-27 -203h74v-84h-85l-18 -141h103v-84h-114q-4 -33 -12.5 -98.5t-11.5 -88.5h-109l25 187h-105q-3 -27 -12.5 -92t-12.5 -95h-110l25 187h-67v84h78l18 141h-96v84h107l27 203h109l-26 -203h105z"/>
<glyph glyph-name="dollar" horiz-adv-x="680" unicode="$" d="M526 653l-48 -91l-40 19q-56 29 -119 29q-109 0 -109 -86q0 -46 27 -67.5t103 -45.5q36 -12 60.5 -22t53 -28.5t45 -41t28 -57.5t11.5 -79q0 -87 -48.5 -136.5t-131.5 -53.5v-90h-100v89q-102 7 -204 72l49 88l51 -24q76 -38 146 -38q47 0 73.5 23t26.5 68q0 47 -22 68 t-92 44q-57 20 -77 28q-60 25 -96 71t-36 132q0 76 50 123.5t131 56.5v78h100v-74q71 -3 168 -55z"/>
<glyph glyph-name="percent" horiz-adv-x="751" unicode="%" d="M116 0l399 703h118l-398 -703h-119zM545 171q0 -66 6 -90.5t32 -24.5q25 0 31.5 22.5t6.5 92.5v35t-1 28.5t-3.5 25.5t-6.5 16.5t-11 12t-16 3.5t-16 -3.5t-11 -12t-6.5 -16.5t-3.5 -25.5t-1 -28.5v-35zM444 173q0 98 28 143t111 45q46 0 76 -14t43.5 -43t17.5 -57.5 t4 -73.5q0 -99 -26.5 -142.5t-114.5 -43.5q-36 0 -62 10t-40.5 25.5t-23 41t-11 50t-2.5 59.5zM128 532q0 -66 6 -90.5t32 -24.5q14 0 22 5t11.5 22.5t4 33.5t0.5 54v35t-1 28.5t-3.5 25.5t-6.5 16.5t-11 12t-16 3.5t-16 -3.5t-11 -12t-6.5 -16.5t-3.5 -25.5t-1 -28.5v-35z M27 534q0 98 28 143t111 45q46 0 76 -14t43.5 -43t17.5 -57.5t4 -73.5q0 -99 -26.5 -142.5t-114.5 -43.5q-36 0 -62 10t-40.5 25.5t-23 41t-11 50t-2.5 59.5z"/>
<glyph glyph-name="ampersand" horiz-adv-x="669" unicode="&amp;" d="M260 570q0 -45 37 -96q71 44 71 96q0 22 -14 37t-41 15q-53 0 -53 -52zM376 124l-137 216q-69 -47 -69 -140q0 -51 30.5 -84t80.5 -33q56 0 95 41zM45 188q0 90 40 140.5t110 89.5q-60 80 -60 152q0 73 49.5 107.5t123.5 34.5q29 0 67 -7q59 -11 87.5 -50t28.5 -88 q0 -31 -13.5 -58t-40.5 -49t-44.5 -33.5t-47.5 -27.5l109 -172q13 41 13 87q0 17 -1 26l113 15q3 -16 3 -34q0 -49 -17 -100t-45 -87q10 -14 32.5 -42.5t41 -52t30.5 -39.5h-163l-32 47q-21 -24 -60 -41t-85 -17q-119 0 -179 53t-60 146z"/>
<glyph glyph-name="quotesingle" horiz-adv-x="208" unicode="&apos;" d="M36 700h128l-18 -248h-93z"/>
<glyph glyph-name="parenleft" horiz-adv-x="416" unicode="(" d="M336 -138l-79 -45q-36 48 -71 108t-70.5 161.5t-35.5 190.5q0 219 178 466l78 -52q-46 -76 -81.5 -191t-35.5 -223q0 -106 37.5 -225.5t79.5 -189.5z"/>
<glyph glyph-name="parenright" horiz-adv-x="393" unicode=")" d="M146 -183l-79 45q42 70 79.5 189.5t37.5 225.5q0 108 -35.5 223t-81.5 191l78 52q178 -247 178 -466q0 -89 -35.5 -190.5t-70.5 -161.5t-71 -108z"/>
<glyph glyph-name="asterisk" horiz-adv-x="471" unicode="*" d="M230 414l-69 -114l-108 90l92 90l-125 29l37 125l116 -56q-2 15 -5.5 42.5t-6 48.5t-3.5 37h143l-15 -125l115 53l40 -123l-123 -30l91 -89l-107 -92z"/>
<glyph glyph-name="plus" d="M32 297v98h213v212h109v-212h213v-98h-213v-213h-109v213h-213z" unicode="+"/>
<glyph glyph-name="comma" horiz-adv-x="234" unicode="," d="M202 73v-7q0 -51 -33 -120.5t-60 -94.5l-50 23q30 51 44 125q-71 2 -71 73q0 41 18 63.5t67 22.5t66.5 -22.5t18.5 -62.5z"/>
<glyph glyph-name="hyphen" d="M160 238v108h277v-108h-277z" unicode="-"/>
<glyph glyph-name="period" horiz-adv-x="234" unicode="." d="M32 73q0 85 85 85t85 -85t-85 -85t-85 85z"/>
<glyph glyph-name="slash" horiz-adv-x="580" unicode="/" d="M0 -200l411 933h125l-410 -933h-126z"/>
<glyph glyph-name="zero" d="M201 352q0 -128 20.5 -193.5t77.5 -65.5t78 65.5t21 193.5q0 127 -21 191t-78 64t-77.5 -63.5t-20.5 -191.5zM57 352q0 60 7.5 111.5t25 99t44.5 80.5t69 52.5t96 19.5q66 0 114.5 -29t76 -81t40 -114.5t12.5 -138.5t-12.5 -138.5t-40 -114.5t-76 -81t-114.5 -29 q-54 0 -96 19.5t-69 52.5t-44.5 80.5t-25 99t-7.5 111.5z" unicode="0"/>
<glyph glyph-name="one" horiz-adv-x="580" unicode="1" d="M320 706h104v-706h-135v528l-157 -127l-61 71z"/>
<glyph glyph-name="two" horiz-adv-x="580" unicode="2" d="M193 93l320 1v-94h-447v89q0 78 44.5 140.5t125.5 125.5q41 33 63 52.5t41.5 51.5t19.5 64q0 37 -20.5 65t-64.5 28q-83 0 -171 -46l-37 94q99 53 211 53q108 0 165.5 -45.5t57.5 -134.5q0 -41 -13 -76t-41.5 -66.5t-51 -51t-62.5 -49.5q-64 -48 -102 -96t-38 -105z"/>
<glyph glyph-name="three" horiz-adv-x="580" unicode="3" d="M89 587l-26 96q84 34 194 34q105 0 163 -42t58 -123q0 -47 -29.5 -86t-70.5 -53v-4q58 -17 95 -61.5t37 -121.5q0 -78 -57.5 -134t-152.5 -82t-217 -26l-14 104q53 0 103.5 8t96 24.5t73.5 46t28 67.5q0 111 -117 111h-87v93h83q44 0 67 29.5t23 68.5q0 40 -25.5 60 t-64.5 20q-87 0 -160 -29z"/>
<glyph glyph-name="four" horiz-adv-x="580" unicode="4" d="M324 517l-170 -244h170v244zM459 177v-177h-135v177h-299v77l321 452h113v-433h77l-16 -96h-61z"/>
<glyph glyph-name="five" horiz-adv-x="580" unicode="5" d="M123 706h365v-104h-248l-12 -149q22 6 70 6q85 0 143.5 -57t58.5 -148q0 -68 -37.5 -121t-100 -83.5t-136 -46t-153.5 -15.5l-15 97q41 0 86 7.5t96 24.5t83.5 53t32.5 85q0 43 -23 78t-76 35q-40 0 -76 -10l-79 19z"/>
<glyph glyph-name="six" horiz-adv-x="580" unicode="6" d="M305 359q-53 0 -113 -72q1 -113 23 -155.5t76 -42.5q48 0 75 37t27 107q0 126 -88 126zM457 708l-25 -94q-39 6 -77 6q-73 0 -117.5 -63.5t-47.5 -162.5q48 61 130 61q98 0 153 -57.5t55 -162.5q0 -109 -63 -177.5t-173 -68.5q-236 0 -236 314q0 189 81.5 302.5 t218.5 113.5q52 0 101 -11z"/>
<glyph glyph-name="seven" horiz-adv-x="580" unicode="7" d="M55 602v104h453v-81q-86 -82 -137.5 -247t-51.5 -378h-142q0 165 52.5 327.5t132.5 274.5h-307z"/>
<glyph glyph-name="eight" horiz-adv-x="580" unicode="8" d="M395 181q0 40 -32.5 77t-82.5 63q-54 -31 -85 -68t-31 -73q0 -45 32 -71.5t84 -26.5q53 0 84 30t31 69zM282 625q-47 0 -66 -25q-18 -22 -18 -55q0 -60 85 -111q84 53 84 111q0 35 -17 55q-20 25 -68 25zM280 719q60 0 102.5 -15.5t63 -41.5t29 -53t8.5 -59 q0 -50 -37.5 -91.5t-80.5 -65.5q75 -30 117.5 -81.5t42.5 -120.5q0 -101 -69.5 -152.5t-176.5 -51.5q-100 0 -164.5 49t-64.5 141q0 72 41 123t102 76q-53 25 -86 69.5t-33 99.5q0 72 49 123t157 51z"/>
<glyph glyph-name="nine" horiz-adv-x="580" unicode="9" d="M270 348q64 0 115 53q-1 115 -24.5 167t-79.5 52q-48 0 -73 -37.5t-25 -107.5q0 -65 24 -96t63 -31zM123 -3l22 95q40 -4 75 -4q66 0 107.5 55.5t52.5 153.5q-46 -48 -121 -48q-98 0 -155 59t-57 164q0 108 62.5 177t171.5 69q123 0 182 -78t59 -237q0 -191 -79.5 -303 t-222.5 -112q-60 0 -97 9z"/>
<glyph glyph-name="colon" horiz-adv-x="276" unicode=":" d="M56 70q0 85 85 85t85 -85t-85 -85t-85 85zM56 448q0 85 85 85t85 -85t-85 -85t-85 85z"/>
<glyph glyph-name="semicolon" horiz-adv-x="277" unicode=";" d="M227 73v-7q0 -51 -33 -120.5t-60 -94.5l-50 23q30 51 44 125q-71 2 -71 73q0 41 18 63.5t67 22.5t66.5 -22.5t18.5 -62.5zM56 444q0 85 85 85t85 -85t-85 -85t-85 85z"/>
<glyph glyph-name="less" d="M74 374l464 197v-119l-278 -108l278 -111v-120l-464 200v61z" unicode="&lt;"/>
<glyph glyph-name="equal" d="M33 379v99h535v-99h-535zM33 201v99h535v-99h-535z" unicode="="/>
<glyph glyph-name="greater" d="M70 572l464 -198v-61l-464 -200v120l278 111l-278 108v120z" unicode="&gt;"/>
<glyph glyph-name="question" horiz-adv-x="487" unicode="?" d="M132 64q0 85 85 85t85 -85t-85 -85t-85 85zM260 265l-1 -62h-100q-9 56 -9 88q0 71 72 130q4 5 21.5 20t28 26t20 31t9.5 42q0 75 -83 75q-17 0 -33 -2t-33 -6.5t-26.5 -8t-29 -10.5t-24.5 -9l-28 93q104 42 196 42q101 0 148.5 -37.5t47.5 -130.5q0 -32 -8 -58 t-28 -48.5t-31.5 -32.5t-38.5 -31q-70 -54 -70 -111z"/>
<glyph glyph-name="at" horiz-adv-x="1003" unicode="@" d="M490 425q-81 0 -81 -151q0 -159 65 -159q66 0 106 87v146l-11 16.5t-12.5 18.5t-12.5 15t-16 14.5t-17 8.5t-21 4zM482 488q33 0 62 -14t42 -38l13 43h75v-275q0 -76 56 -76q52 0 77.5 33.5t25.5 131.5q0 310 -332 310q-95 0 -161.5 -25.5t-103 -73.5t-52.5 -108.5 t-16 -140.5q0 -63 9.5 -113t33 -94.5t61 -74.5t95.5 -47t134 -17q78 0 140 11.5t92.5 23t90.5 38.5l35 -75q-39 -26 -73.5 -42.5t-112 -33t-175.5 -16.5q-444 0 -444 437q0 214 104 326t340 112q119 0 206.5 -30.5t138 -86t74.5 -126t24 -158.5q0 -76 -18.5 -128t-52 -77.5 t-69.5 -35t-83 -9.5q-53 0 -79.5 22t-43.5 60q-43 -78 -128 -78q-96 0 -135 54.5t-39 172.5q0 218 189 218z"/>
<glyph glyph-name="A" horiz-adv-x="611" unicode="A" d="M378 292l-64 262l-7 63h-6l-7 -63l-63 -262h147zM463 0l-56 192h-204l-55 -192h-139l214 706h165l213 -706h-138z"/>
<glyph glyph-name="B" horiz-adv-x="601" unicode="B" d="M228 420h76q43 0 63 28.5t20 71.5q0 44 -23 65t-58 21h-78v-186zM228 100h94q48 0 73.5 29t25.5 74q0 121 -98 121h-95v-224zM332 0h-242v706h227q90 0 146.5 -40.5t56.5 -133.5q0 -83 -73 -128q-13 -8 -27 -10v-4q1 0 6 -1.5t12 -3.5t12 -5q109 -50 109 -178 q0 -98 -66.5 -150t-160.5 -52z"/>
<glyph glyph-name="C" horiz-adv-x="558" unicode="C" d="M514 669l-36 -94q-59 43 -140 43q-45 0 -76 -21t-46.5 -60t-22 -82.5t-6.5 -100.5q0 -265 151 -265q51 0 99 26q30 16 41 24l39 -95q-86 -55 -179 -55q-293 0 -293 365q0 364 294 364q93 0 175 -49z"/>
<glyph glyph-name="D" horiz-adv-x="661" unicode="D" d="M333 606h-104v-506h103q137 0 137 254q0 121 -31.5 186.5t-104.5 65.5zM90 0l2 706h239q160 0 220 -83t60 -269q0 -71 -14.5 -131.5t-45.5 -112t-87.5 -81t-132.5 -29.5h-241z"/>
<glyph glyph-name="E" horiz-adv-x="559" unicode="E" d="M496 706v-104h-269v-184h241v-102h-241v-212h269v-104h-406v706h406z"/>
<glyph glyph-name="F" horiz-adv-x="545" unicode="F" d="M497 706v-104h-269v-192h241v-104h-241v-306h-138v706h407z"/>
<glyph glyph-name="G" horiz-adv-x="649" unicode="G" d="M562 671l-43 -98q-78 39 -166 39q-49 0 -83.5 -20t-52 -58t-24.5 -81t-7 -100q0 -59 5.5 -101t21.5 -81.5t48.5 -60t81.5 -20.5q35 0 97 18v161h-131l-12 104h281v-322q-33 -21 -104.5 -41.5t-142.5 -20.5q-145 0 -217 95t-72 269q0 363 310 363q115 0 210 -45z"/>
<glyph glyph-name="H" horiz-adv-x="702" unicode="H" d="M475 0v312h-247v-312h-138v706h138v-291h247v291h137v-706h-137z"/>
<glyph glyph-name="I" horiz-adv-x="318" unicode="I" d="M228 706v-706h-138v706h138z"/>
<glyph glyph-name="J" horiz-adv-x="392" unicode="J" d="M124 -14q-78 0 -139 38l36 93q48 -25 87 -25q26 0 41.5 15.5t15.5 40.5v558h137v-547q0 -91 -44.5 -132t-133.5 -41z"/>
<glyph glyph-name="K" horiz-adv-x="629" unicode="K" d="M623 706l-275 -331l278 -375h-163l-224 345l-12 -1v-344h-137v706h137v-315h9l228 315h159z"/>
<glyph glyph-name="L" horiz-adv-x="523" unicode="L" d="M528 104l-14 -104h-424v706h138v-602h300z"/>
<glyph glyph-name="M" horiz-adv-x="873" unicode="M" d="M679 0l-21 522l6 53h-11l-11 -54l-138 -521h-149l-126 519l-11 56h-12l4 -57l-23 -518h-128l48 706h197l132 -546l5 -68h8l4 68l139 546h188l34 -706h-135z"/>
<glyph glyph-name="N" horiz-adv-x="697" unicode="N" d="M85 706h171l246 -577l4 2l-10 81v494h116v-706h-167l-255 584l-5 -3l16 -79v-502h-116v706z"/>
<glyph glyph-name="O" horiz-adv-x="649" unicode="O" d="M188 352q0 -59 5 -101.5t18.5 -83.5t42 -62t70.5 -21q43 0 71.5 21.5t42.5 61.5t19 83t5 102q0 46 -2.5 81.5t-11.5 72t-23.5 60t-40 38.5t-60.5 15t-60 -15t-39.5 -38.5t-23 -60t-11 -72t-2.5 -81.5zM46 352q0 364 278 364q279 0 279 -364q0 -365 -279 -365 q-278 0 -278 365z"/>
<glyph glyph-name="P" horiz-adv-x="587" unicode="P" d="M307 605h-79v-249h79q106 0 106 129q0 59 -23 89.5t-83 30.5zM90 0v706h238q118 0 172 -49.5t54 -170.5q0 -106 -56 -168t-170 -62h-100v-256h-138z"/>
<glyph glyph-name="Q" horiz-adv-x="645" unicode="Q" d="M184 352q0 -59 5 -101.5t18.5 -83.5t42 -62t70.5 -21q43 0 71.5 21.5t42.5 61.5t19 83t5 102q0 46 -2.5 81.5t-11.5 72t-23.5 60t-40 38.5t-60.5 15t-60 -15t-39.5 -38.5t-23 -60t-11 -72t-2.5 -81.5zM42 352q0 364 278 364q279 0 279 -364q0 -317 -212 -359 q1 -12 5 -21.5t7 -15t13 -11.5t14.5 -8.5t19.5 -8.5l20 -8l131 -57l-45 -94l-162 80q-21 10 -35.5 19t-31 25t-26 40.5t-11.5 55.5q-244 20 -244 363z"/>
<glyph glyph-name="R" horiz-adv-x="616" unicode="R" d="M328 612h-100v-226h96q50 0 70.5 29.5t20.5 86.5q0 51 -17.5 80.5t-69.5 29.5zM90 0v706h248q119 0 170.5 -46.5t51.5 -157.5q0 -153 -145 -191q-14 -4 -24 -5v-3q32 -10 53 -41q4 -4 42 -69.5t74 -128.5l35 -64h-160l-145 292h-62v-292h-138z"/>
<glyph glyph-name="S" horiz-adv-x="559" unicode="S" d="M497 660l-48 -91l-40 19q-54 28 -119 28q-109 0 -109 -86q0 -46 28 -69t102 -47q46 -15 76 -29.5t60.5 -40t46 -65.5t15.5 -95q0 -101 -63 -148t-175 -47q-132 0 -246 73l49 88l51 -24q72 -36 146 -36q47 0 73.5 23.5t26.5 68.5q0 47 -22.5 70t-91.5 44l-40 13 q-34 11 -60 25t-53 38.5t-41.5 64.5t-14.5 93q0 91 68.5 139t172.5 48q59 0 105 -13t103 -44z"/>
<glyph glyph-name="T" horiz-adv-x="537" unicode="T" d="M518 706v-104h-179v-602h-138v602h-182v104h499z"/>
<glyph glyph-name="U" horiz-adv-x="688" unicode="U" d="M90 706h137v-502q0 -116 120 -116q123 0 123 108v510h128v-482q0 -126 -58 -180.5t-193 -54.5q-140 0 -198.5 54t-58.5 181v482z"/>
<glyph glyph-name="V" horiz-adv-x="650" unicode="V" d="M241 0l-216 706h150l137 -519l11 -89h7l11 89l135 519h146l-215 -706h-166z"/>
<glyph glyph-name="W" horiz-adv-x="915" unicode="W" d="M538 706l99 -507l8 -81h7l9 81l94 507h125l-159 -706h-154l-110 535l-5 64h-7l-6 -64l-102 -535h-149l-158 706h133l92 -507l6 -81h7l8 81l105 507h157z"/>
<glyph glyph-name="X" horiz-adv-x="606" unicode="X" d="M577 706l-193 -335q30 -57 99.5 -187.5t97.5 -183.5h-153l-126 257q-22 -41 -67.5 -131.5t-64.5 -125.5h-145l198 352q-22 41 -90 166.5t-101 187.5h153l123 -252q13 24 60 116.5t71 135.5h138z"/>
<glyph glyph-name="Y" horiz-adv-x="563" unicode="Y" d="M211 268l-211 438h143l125 -290l13 -70h7l12 70l115 290h140l-206 -437v-269h-138v268z"/>
<glyph glyph-name="Z" horiz-adv-x="571" unicode="Z" d="M55 706h474v-73l-332 -549l51 20h296v-104h-503v73l321 538l-52 -9h-255v104z"/>
<glyph glyph-name="bracketleft" horiz-adv-x="382" unicode="[" d="M90 -173v906h253v-94h-124v-717h124v-95h-253z"/>
<glyph glyph-name="backslash" horiz-adv-x="597" unicode="\" d="M173 732l414 -932h-126l-413 932h125z"/>
<glyph glyph-name="bracketright" horiz-adv-x="340" unicode="]" d="M270 734v-908h-253v95h124v719h-124v94h253z"/>
<glyph glyph-name="asciicircum" horiz-adv-x="554" unicode="^" d="M57 233l199 467h74l201 -467h-128l-111 287l-108 -287h-127z"/>
<glyph glyph-name="underscore" horiz-adv-x="533" unicode="_" d="M-11 -58v99h534v-99h-534z"/>
<glyph glyph-name="grave" horiz-adv-x="199" unicode="`" d="M-63 806l101 45l94 -220l-79 -35z"/>
<glyph glyph-name="a" horiz-adv-x="563" unicode="a" d="M243 71q51 0 111 54v111q-61 -5 -111 -14q-65 -12 -65 -83q0 -68 65 -68zM483 0h-97l-12 61q-69 -72 -148 -72q-89 0 -133 33.5t-44 118.5q0 78 45 113.5t151 46.5q16 2 54 4t55 3v69q0 38 -21 60t-57 22q-71 0 -175 -47l-25 91q87 45 200 45q62 0 104.5 -15.5t64 -43.5 t30 -59t8.5 -70v-360z"/>
<glyph glyph-name="b" horiz-adv-x="598" unicode="b" d="M336 461q-61 0 -124 -45v-297q58 -43 121 -43q44 0 61 47.5t17 139.5q0 93 -16 145.5t-59 52.5zM83 0v772h129v-282q65 58 153 58q104 0 144 -75t40 -210q0 -274 -188 -274q-102 0 -167 67l-15 -56h-96z"/>
<glyph glyph-name="c" horiz-adv-x="491" unicode="c" d="M450 504l-31 -92q-64 43 -131 43q-105 0 -105 -189q0 -90 27 -137t78 -47q78 0 135 40l28 -88q-67 -45 -163 -45q-125 0 -184.5 75t-59.5 202q0 128 60 205t184 77q97 0 162 -44z"/>
<glyph glyph-name="d" horiz-adv-x="592" unicode="d" d="M266 79q58 0 114 38v298q-69 44 -114 44q-46 0 -65 -47.5t-19 -145.5q0 -95 20 -141t64 -46zM509 773v-773h-100l-13 56q-55 -67 -147 -67q-205 0 -205 277q0 133 46 208t159 75q76 0 131 -57v281h129z"/>
<glyph glyph-name="e" horiz-adv-x="552" unicode="e" d="M290 462q-57 0 -83 -40t-26 -98h200q0 138 -91 138zM294 548q124 0 168.5 -70t44.5 -231h-327v-22q8 -143 118 -143q102 0 174 36l22 -92q-80 -37 -197 -37q-254 0 -254 275q0 131 61 207.5t190 76.5z"/>
<glyph glyph-name="f" horiz-adv-x="398" unicode="f" d="M17 451v86h86v75q0 87 51 127t138 40q63 0 134 -29l-30 -85q-55 22 -100 22q-28 0 -45.5 -18t-17.5 -54v-78h157v-86h-157v-451h-130v451h-86z"/>
<glyph glyph-name="g" horiz-adv-x="601" unicode="g" d="M198 362q0 -52 18 -77.5t66 -25.5t68 24t20 80q0 51 -20 76.5t-68 25.5q-46 0 -65 -26t-19 -77zM414 -64q0 41 -24.5 55.5t-105.5 14.5q-76 0 -98 -16.5t-22 -53.5q0 -39 23 -59t95 -20q74 0 103 18.5t29 60.5zM601 458l-111 -12q18 -33 18 -83q0 -184 -226 -184 q-22 0 -54 4q-1 -1 -11 -8.5t-16 -16.5t-6 -22q0 -44 87 -44q82 0 137 -12t83 -34.5t39 -49t11 -62.5q0 -87 -69.5 -124.5t-200.5 -37.5t-192.5 38t-61.5 125q0 102 106 134q-12 5 -18.5 9t-16.5 12t-15 19t-5 25q0 18 13 33.5t24 22t32 17.5q-47 14 -67.5 59t-20.5 96 q0 187 222 187q104 0 161 -39q51 18 137 29z"/>
<glyph glyph-name="h" horiz-adv-x="622" unicode="h" d="M343 453q-68 0 -129 -47v-406h-129v783h129v-299q24 26 66 45t91 19q81 0 124.5 -41.5t43.5 -118.5v-388h-129v370q0 37 -17.5 60t-49.5 23z"/>
<glyph glyph-name="i" horiz-adv-x="298" unicode="i" d="M67 691q0 35 17.5 55.5t64.5 20.5q82 0 82 -76q0 -36 -18 -56.5t-64 -20.5q-47 0 -64.5 20.5t-17.5 56.5zM213 537v-537h-129v537h129z"/>
<glyph glyph-name="j" horiz-adv-x="315" unicode="j" d="M79 691q0 76 82 76q47 0 65 -20.5t18 -55.5q0 -36 -18 -56.5t-65 -20.5q-46 0 -64 20.5t-18 56.5zM227 537v-573q0 -85 -53.5 -135t-145.5 -50q-50 0 -95 16l20 87q33 -11 73 -11q32 0 52 24t20 69v573h129z"/>
<glyph glyph-name="k" horiz-adv-x="547" unicode="k" d="M213 782v-477h7l161 232h152l-209 -253l212 -284h-153l-161 254l-9 -1v-253h-130v782h130z"/>
<glyph glyph-name="l" horiz-adv-x="360" unicode="l" d="M83 153v631h129v-628q0 -71 54 -71q37 0 77 14l17 -88q-54 -18 -114 -18q-67 0 -115 39.5t-48 120.5z"/>
<glyph glyph-name="m" horiz-adv-x="899" unicode="m" d="M620 464q-59 0 -106 -54v-410h-129v386q0 32 -18 55t-48 23q-62 0 -107 -55v-409h-129v537h93l14 -52q62 64 160 64q97 0 134 -64q67 64 170 64q30 0 56 -6.5t51 -22t40 -46.5t15 -74v-400h-129v386q0 32 -18.5 55t-48.5 23z"/>
<glyph glyph-name="n" horiz-adv-x="620" unicode="n" d="M337 457q-58 0 -125 -51v-406h-129v537h100l13 -54q70 66 165 66q176 0 176 -149v-400h-129v383q0 36 -21 55t-50 19z"/>
<glyph glyph-name="o" horiz-adv-x="572" unicode="o" d="M181 264q0 -42 4 -73t15 -59.5t32.5 -43.5t53.5 -15q63 0 84.5 47.5t21.5 143.5q0 48 -4 81.5t-15 62t-32.5 42.5t-54.5 14q-32 0 -53.5 -16.5t-32.5 -46.5t-15 -62.5t-4 -74.5zM45 264q0 63 11.5 112t38 89t75 61.5t116.5 21.5q133 0 187 -74t54 -210q0 -135 -53.5 -205 t-187.5 -70q-131 0 -186 72.5t-55 202.5z"/>
<glyph glyph-name="p" horiz-adv-x="601" unicode="p" d="M329 76q46 0 64.5 46t18.5 143t-17.5 146.5t-59.5 49.5q-55 0 -123 -45v-305q55 -35 117 -35zM83 -221v758h100l13 -55q78 66 162 66q56 0 94.5 -21t58.5 -61.5t28.5 -88.5t8.5 -112q0 -276 -195 -276q-44 0 -73.5 9.5t-67.5 34.5v-254h-129z"/>
<glyph glyph-name="q" horiz-adv-x="585" unicode="q" d="M258 78q55 0 118 40v294q-26 17 -38.5 24.5t-34 15t-43.5 7.5q-47 0 -64.5 -47.5t-17.5 -147.5q0 -95 19 -140.5t61 -45.5zM505 537v-758h-129v266q-26 -25 -62 -40.5t-67 -15.5q-61 0 -103 20t-64 58.5t-31 85.5t-9 111q0 65 9 113t30.5 88.5t62.5 61.5t101 21 q50 0 83.5 -18.5t67.5 -53.5l16 61h95z"/>
<glyph glyph-name="r" horiz-adv-x="420" unicode="r" d="M83 0v537h95l16 -66q0 1 11.5 13.5t16.5 17.5t18.5 16t24 16t27 9.5t33.5 4.5q49 0 86 -16l-25 -99q-35 19 -67 19q-29 0 -59 -21t-48 -49v-382h-129z"/>
<glyph glyph-name="s" horiz-adv-x="471" unicode="s" d="M429 507l-34 -86q-67 35 -147 35q-79 0 -79 -59q0 -28 23 -43.5t76 -33.5q42 -14 64.5 -24t50 -30t40 -51t12.5 -74q0 -45 -18.5 -76.5t-51 -47t-66 -22t-72.5 -6.5q-122 0 -199 40l29 84q84 -36 170 -36q37 0 58.5 15t21.5 44q0 28 -16 42.5t-69 30.5q-27 8 -45.5 15 t-45.5 22t-43.5 33t-29 48t-12.5 66q0 81 58 118t142 37q103 0 183 -41z"/>
<glyph glyph-name="t" horiz-adv-x="456" unicode="t" d="M23 453v84h94l25 170h98v-170h176v-84h-176v-292q0 -39 19 -59t49 -20q54 0 97 21l22 -86q-57 -28 -121 -28q-195 0 -195 169v295h-88z"/>
<glyph glyph-name="u" horiz-adv-x="620" unicode="u" d="M281 78q63 0 127 46v413h129v-537h-96l-12 52q-67 -63 -160 -63q-89 0 -137.5 37t-48.5 111v400h129v-386q0 -33 18 -53t51 -20z"/>
<glyph glyph-name="v" horiz-adv-x="540" unicode="v" d="M144 537l110 -380l10 -61h7l9 61l105 380h134l-169 -537h-167l-178 537h139z"/>
<glyph glyph-name="w" horiz-adv-x="785" unicode="w" d="M472 537l87 -374l6 -65h7l6 65l67 374h113l-120 -537h-143l-98 410l-7 57h-6l-5 -57l-97 -410h-141l-121 537h123l74 -376l5 -63h6l5 63l84 376h155z"/>
<glyph glyph-name="x" horiz-adv-x="533" unicode="x" d="M498 537l-160 -262q17 -27 79 -128.5t91 -146.5h-142l-104 174l-106 -174h-142l173 265l-162 272h140l96 -167l96 167h141z"/>
<glyph glyph-name="y" horiz-adv-x="540" unicode="y" d="M222 -36l-206 573h138l116 -371l9 -63h4l9 63l99 371h135l-141 -425q-8 -24 -32 -108.5t-35 -112.5q-44 -112 -145 -112q-75 0 -134 29l26 83q46 -19 83 -19q40 0 55 39z"/>
<glyph glyph-name="z" horiz-adv-x="519" unicode="z" d="M56 537h407v-81l-272 -378l59 14h218v-92h-419v84l265 371l-61 -10h-197v92z"/>
<glyph glyph-name="braceleft" horiz-adv-x="406" unicode="{" d="M56 232v95h33q25 0 32 19t7 54v203q0 57 33.5 93t94.5 36h88v-85h-42q-25 0 -35 -12.5t-10 -37.5v-214q0 -36 -21 -65.5t-47 -35.5v-4q68 -31 68 -114v-202q0 -50 37 -50h50v-85h-88q-54 0 -91 33.5t-37 84.5v212q0 75 -38 75h-34z"/>
<glyph glyph-name="bar" horiz-adv-x="249" unicode="|" d="M183 733v-935h-117v935h117z"/>
<glyph glyph-name="braceright" horiz-adv-x="406" unicode="}" d="M344 327v-95h-34q-38 0 -38 -75v-212q0 -51 -37 -84.5t-91 -33.5h-88v85h50q37 0 37 50v202q0 83 68 114v4q-26 6 -47 35.5t-21 65.5v214q0 25 -10 37.5t-35 12.5h-42v85h88q61 0 94.5 -36t33.5 -93v-203q0 -23 1.5 -36.5t11 -25t26.5 -11.5h33z"/>
<glyph glyph-name="asciitilde" horiz-adv-x="602" unicode="~" d="M566 405l-55 -74l-39 34q-48 37 -72 37q-10 0 -18.5 -3.5t-13.5 -7t-15 -13t-15 -13.5q-27 -22 -44.5 -34t-48 -24.5t-59.5 -12.5q-47 0 -94 38t-74 76l67 70l25 -29q46 -49 76 -49q7 0 16.5 4t16 9t19 14.5t19.5 14.5q4 3 17.5 13t19 13.5t17.5 11.5t20 11.5t19.5 8 t22.5 6t22 1.5q48 0 95.5 -34t75.5 -68z"/>
<glyph glyph-name="uni00A0" horiz-adv-x="244" unicode=" "/>
<glyph glyph-name="currency" horiz-adv-x="680" unicode="¤" d="M351 619h-87v-244h87q102 0 102 121q0 63 -19.5 93t-82.5 30zM50 375h80v336h228q121 0 174.5 -46.5t53.5 -168.5q0 -96 -57 -152.5t-171 -56.5h-94v-70h245v-88h-245v-129h-134v129h-80v88h80v70h-80v88z"/>
<glyph glyph-name="yen" horiz-adv-x="680" unicode="¥" d="M54 143v88h187v37l-11 23h-176v88h133l-157 327h143l125 -290l12 -37h9l11 37l115 290h140l-154 -327h135v-88h-177l-10 -22v-38h187v-88h-187v-143h-138v143h-187z"/>
<glyph glyph-name="brokenbar" horiz-adv-x="295" unicode="¦" d="M80 296v408h135v-408h-135zM80 -181v409h135v-409h-135z"/>
<glyph glyph-name="section" horiz-adv-x="605" unicode="§" d="M202 255q0 -44 16 -65.5t59 -36.5q53 2 89.5 29.5t36.5 85.5q0 46 -17.5 71.5t-59.5 32.5q-5 1 -15 1q-47 0 -78 -30.5t-31 -87.5zM466 689l-29 -81q-47 13 -98 13q-47 0 -65.5 -17t-18.5 -52q0 -41 15.5 -63.5t71.5 -40.5q3 -1 9.5 -2t9.5 -2q21 -5 32 -8t31.5 -11 t32 -15.5t26.5 -20.5t23 -28.5t14 -38.5t6 -50q0 -109 -86 -154q-25 -13 -54 -18q36 -18 58 -51t22 -73q0 -45 -16 -78.5t-44 -50.5t-58 -25t-65 -8q-93 0 -153 26l29 79q47 -12 102 -12q78 0 78 65q0 42 -14 62.5t-51 33.5q-37 10 -58 16.5t-51 21.5t-46 32.5t-28 47.5 t-12 68q0 145 132 173q-39 25 -51 41q-32 40 -32 86q0 45 16.5 78t44.5 50t58.5 24.5t65.5 7.5q86 0 153 -25z"/>
<glyph glyph-name="dieresis" horiz-adv-x="424" unicode="¨" d="M263 697q0 36 17.5 56t63.5 20t63.5 -20t17.5 -56q0 -35 -17.5 -55t-63.5 -20t-63.5 20t-17.5 55zM42 697q0 36 17.5 56t64.5 20q46 0 63.5 -20t17.5 -56q0 -35 -17.5 -55t-63.5 -20t-64 20t-18 55z"/>
<glyph glyph-name="copyright" horiz-adv-x="933" unicode="©" d="M628 497l-28 -75q-44 28 -104 28q-63 0 -86.5 -50t-23.5 -138q0 -188 110 -188q42 0 73 18q25 12 31 17l32 -78q-66 -39 -136 -39q-221 0 -221 270q0 271 222 271q69 0 131 -36zM138 265q0 -64 8 -114t30.5 -97.5t60 -78.5t99.5 -50t145 -19t145 19t99.5 50t60.5 78.5 t31 97.5t8 114t-8 114t-31 98t-60.5 79t-99.5 50t-145 19t-145 -19t-99.5 -50t-60 -79t-30.5 -98t-8 -114zM30 265q0 97 23 174t73 139.5t140 97t215 34.5t215 -34.5t140 -97t73 -139.5t23 -174t-23 -174.5t-73 -140t-140 -97t-215 -34.5t-215 34.5t-140 97t-73 140 t-23 174.5z"/>
<glyph glyph-name="guillemotleft" horiz-adv-x="547" unicode="«" d="M259 271l109 206h128l-99 -206l99 -209h-128zM50 271l109 206h129l-100 -206l100 -209h-129z"/>
<glyph glyph-name="logicalnot" d="M33 428v97h534v-313h-109v216h-425z" unicode="¬"/>
<glyph glyph-name="uni00AD" horiz-adv-x="415" unicode="­" d="M61 243v103h278v-103h-278z"/>
<glyph glyph-name="registered" horiz-adv-x="633" unicode="®" d="M342 536q0 33 -31 33q-20 0 -30 -1v-65q10 -2 28 -2q17 1 25 12t8 23zM213 354v261h95q93 0 93 -81q0 -34 -21 -53q-9 -9 -25 -13l16 -14l43 -100h-76l-34 108h-23v-108h-68zM111 482q0 -86 50 -143t145 -57q94 0 144.5 57.5t50.5 142.5q0 86 -50.5 143t-144.5 57 q-95 0 -145 -57t-50 -143zM35 482q0 114 67.5 187t203.5 73q135 0 203 -73t68 -187t-68 -187t-203 -73q-136 0 -203.5 73t-67.5 187z"/>
<glyph glyph-name="degree" d="M224 536q0 -34 21.5 -57t53.5 -23q31 0 53 23t22 57t-22 58t-53 24q-32 0 -53.5 -24t-21.5 -58zM120 536q0 72 52 123.5t127 51.5q74 0 127 -51.5t53 -123.5t-53 -122.5t-127 -50.5q-75 0 -127 50.5t-52 122.5z" unicode="°"/>
<glyph glyph-name="plusminus" d="M16 0v99h535v-99h-535zM16 354v98h213v212h109v-212h213v-98h-213v-214h-109v214h-213z" unicode="±"/>
<glyph glyph-name="acute" horiz-adv-x="353" unicode="´" d="M51 851l101 -45l-116 -210l-79 35z"/>
<glyph glyph-name="mu" horiz-adv-x="780" unicode="µ" d="M242 44v-291h-121v784h121v-398q51 -61 111 -61q52 0 103 61v398h118v-396q9 -30 32 -48t49 -18q40 0 88 22l28 -56q-78 -52 -150 -52q-34 0 -62 14t-41 28t-28 35q-25 -34 -62.5 -56t-74.5 -22q-75 0 -111 56z"/>
<glyph glyph-name="mu" horiz-adv-x="780" unicode="μ" d="M242 44v-291h-121v784h121v-398q51 -61 111 -61q52 0 103 61v398h118v-396q9 -30 32 -48t49 -18q40 0 88 22l28 -56q-78 -52 -150 -52q-34 0 -62 14t-41 28t-28 35q-25 -34 -62.5 -56t-74.5 -22q-75 0 -111 56z"/>
<glyph glyph-name="paragraph" horiz-adv-x="599" unicode="¶" d="M382 -200v905h127v-905h-127zM202 706l108 -1v-905h-127v599q-138 11 -138 158q0 77 36.5 113t120.5 36z"/>
<glyph glyph-name="periodcentered" horiz-adv-x="303" unicode="·" d="M49 318q0 38 28.5 65t67.5 27q41 0 69 -27t28 -65t-28 -64t-69 -26q-39 0 -67.5 26.5t-28.5 63.5z"/>
<glyph glyph-name="guillemotright" horiz-adv-x="487" unicode="»" d="M161 477l108 -206l-108 -209h-129l100 209l-100 206h129zM368 477l109 -206l-109 -209h-128l100 209l-100 206h128z"/>
<glyph glyph-name="Agrave" horiz-adv-x="611" unicode="À" d="M121 926h127l99 -174h-95zM378 292l-64 262l-7 63h-6l-7 -63l-63 -262h147zM463 0l-56 192h-204l-55 -192h-139l214 706h165l213 -706h-138z"/>
<glyph glyph-name="Aacute" horiz-adv-x="611" unicode="Á" d="M356 926h127l-131 -174h-95zM378 292l-64 262l-7 63h-6l-7 -63l-63 -262h147zM463 0l-56 192h-204l-55 -192h-139l214 706h165l213 -706h-138z"/>
<glyph glyph-name="Egrave" horiz-adv-x="559" unicode="È" d="M148 926h127l99 -174h-95zM496 706v-104h-269v-184h241v-102h-241v-212h269v-104h-406v706h406z"/>
<glyph glyph-name="Eacute" horiz-adv-x="559" unicode="É" d="M302 926h127l-131 -174h-95zM496 706v-104h-269v-184h241v-102h-241v-212h269v-104h-406v706h406z"/>
<glyph glyph-name="Igrave" horiz-adv-x="318" unicode="Ì" d="M-15 926h127l99 -174h-95zM228 706v-706h-138v706h138z"/>
<glyph glyph-name="Iacute" horiz-adv-x="318" unicode="Í" d="M203 926h127l-131 -174h-95zM228 706v-706h-138v706h138z"/>
<glyph glyph-name="Ograve" horiz-adv-x="649" unicode="Ò" d="M150 926h127l99 -174h-95zM188 352q0 -59 5 -101.5t18.5 -83.5t42 -62t70.5 -21q43 0 71.5 21.5t42.5 61.5t19 83t5 102q0 46 -2.5 81.5t-11.5 72t-23.5 60t-40 38.5t-60.5 15t-60 -15t-39.5 -38.5t-23 -60t-11 -72t-2.5 -81.5zM46 352q0 364 278 364q279 0 279 -364 q0 -365 -279 -365q-278 0 -278 365z"/>
<glyph glyph-name="Oacute" horiz-adv-x="649" unicode="Ó" d="M338 926h127l-131 -174h-95zM188 352q0 -59 5 -101.5t18.5 -83.5t42 -62t70.5 -21q43 0 71.5 21.5t42.5 61.5t19 83t5 102q0 46 -2.5 81.5t-11.5 72t-23.5 60t-40 38.5t-60.5 15t-60 -15t-39.5 -38.5t-23 -60t-11 -72t-2.5 -81.5zM46 352q0 364 278 364q279 0 279 -364 q0 -365 -279 -365q-278 0 -278 365z"/>
<glyph glyph-name="multiply" d="M146 144l-70 68l150 151l-150 150l76 77l151 -149l150 151l70 -68l-150 -151l151 -150l-76 -78l-151 150z" unicode="×"/>
<glyph glyph-name="Ugrave" horiz-adv-x="688" unicode="Ù" d="M187 926h127l99 -174h-95zM90 706h137v-502q0 -116 120 -116q123 0 123 108v510h128v-482q0 -126 -58 -180.5t-193 -54.5q-140 0 -198.5 54t-58.5 181v482z"/>
<glyph glyph-name="Uacute" horiz-adv-x="688" unicode="Ú" d="M385 926h127l-131 -174h-95zM90 706h137v-502q0 -116 120 -116q123 0 123 108v510h128v-482q0 -126 -58 -180.5t-193 -54.5q-140 0 -198.5 54t-58.5 181v482z"/>
<glyph glyph-name="Yacute" horiz-adv-x="563" unicode="Ý" d="M323 926h127l-131 -174h-95zM211 268l-211 438h143l125 -290l13 -70h7l12 70l115 290h140l-206 -437v-269h-138v268z"/>
<glyph glyph-name="agrave" horiz-adv-x="563" unicode="à" d="M145 806l101 45l94 -220l-79 -35zM243 71q51 0 111 54v111q-61 -5 -111 -14q-65 -12 -65 -83q0 -68 65 -68zM483 0h-97l-12 61q-69 -72 -148 -72q-89 0 -133 33.5t-44 118.5q0 78 45 113.5t151 46.5q16 2 54 4t55 3v69q0 38 -21 60t-57 22q-71 0 -175 -47l-25 91 q87 45 200 45q62 0 104.5 -15.5t64 -43.5t30 -59t8.5 -70v-360z"/>
<glyph glyph-name="aacute" horiz-adv-x="563" unicode="á" d="M298 851l101 -45l-116 -210l-79 35zM243 71q51 0 111 54v111q-61 -5 -111 -14q-65 -12 -65 -83q0 -68 65 -68zM483 0h-97l-12 61q-69 -72 -148 -72q-89 0 -133 33.5t-44 118.5q0 78 45 113.5t151 46.5q16 2 54 4t55 3v69q0 38 -21 60t-57 22q-71 0 -175 -47l-25 91 q87 45 200 45q62 0 104.5 -15.5t64 -43.5t30 -59t8.5 -70v-360z"/>
<glyph glyph-name="egrave" horiz-adv-x="552" unicode="è" d="M173 806l101 45l94 -220l-79 -35zM290 462q-57 0 -83 -40t-26 -98h200q0 138 -91 138zM294 548q124 0 168.5 -70t44.5 -231h-327v-22q8 -143 118 -143q102 0 174 36l22 -92q-80 -37 -197 -37q-254 0 -254 275q0 131 61 207.5t190 76.5z"/>
<glyph glyph-name="eacute" horiz-adv-x="552" unicode="é" d="M292 851l101 -45l-116 -210l-79 35zM290 462q-57 0 -83 -40t-26 -98h200q0 138 -91 138zM294 548q124 0 168.5 -70t44.5 -231h-327v-22q8 -143 118 -143q102 0 174 36l22 -92q-80 -37 -197 -37q-254 0 -254 275q0 131 61 207.5t190 76.5z"/>
<glyph glyph-name="igrave" horiz-adv-x="298" unicode="ì" d="M16 806l101 45l94 -220l-79 -35zM213 537v-537h-129v537h129z"/>
<glyph glyph-name="iacute" horiz-adv-x="298" unicode="í" d="M180 851l101 -45l-116 -210l-79 35zM213 537v-537h-129v537h129z"/>
<glyph glyph-name="ograve" horiz-adv-x="572" unicode="ò" d="M168 806l101 45l94 -220l-79 -35zM181 264q0 -42 4 -73t15 -59.5t32.5 -43.5t53.5 -15q63 0 84.5 47.5t21.5 143.5q0 48 -4 81.5t-15 62t-32.5 42.5t-54.5 14q-32 0 -53.5 -16.5t-32.5 -46.5t-15 -62.5t-4 -74.5zM45 264q0 63 11.5 112t38 89t75 61.5t116.5 21.5 q133 0 187 -74t54 -210q0 -135 -53.5 -205t-187.5 -70q-131 0 -186 72.5t-55 202.5z"/>
<glyph glyph-name="oacute" horiz-adv-x="572" unicode="ó" d="M282 851l101 -45l-116 -210l-79 35zM181 264q0 -42 4 -73t15 -59.5t32.5 -43.5t53.5 -15q63 0 84.5 47.5t21.5 143.5q0 48 -4 81.5t-15 62t-32.5 42.5t-54.5 14q-32 0 -53.5 -16.5t-32.5 -46.5t-15 -62.5t-4 -74.5zM45 264q0 63 11.5 112t38 89t75 61.5t116.5 21.5 q133 0 187 -74t54 -210q0 -135 -53.5 -205t-187.5 -70q-131 0 -186 72.5t-55 202.5z"/>
<glyph glyph-name="divide" d="M207 70q0 85 85 85t85 -85t-85 -85t-85 85zM207 448q0 85 85 85t85 -85t-85 -85t-85 85zM33 218v98h535v-98h-535z" unicode="÷"/>
<glyph glyph-name="ugrave" horiz-adv-x="620" unicode="ù" d="M192 806l101 45l94 -220l-79 -35zM281 78q63 0 127 46v413h129v-537h-96l-12 52q-67 -63 -160 -63q-89 0 -137.5 37t-48.5 111v400h129v-386q0 -33 18 -53t51 -20z"/>
<glyph glyph-name="uacute" horiz-adv-x="620" unicode="ú" d="M338 851l101 -45l-116 -210l-79 35zM281 78q63 0 127 46v413h129v-537h-96l-12 52q-67 -63 -160 -63q-89 0 -137.5 37t-48.5 111v400h129v-386q0 -33 18 -53t51 -20z"/>
<glyph glyph-name="yacute" horiz-adv-x="540" unicode="ý" d="M296 851l101 -45l-116 -210l-79 35zM222 -36l-206 573h138l116 -371l9 -63h4l9 63l99 371h135l-141 -425q-8 -24 -32 -108.5t-35 -112.5q-44 -112 -145 -112q-75 0 -134 29l26 83q46 -19 83 -19q40 0 55 39z"/>
<glyph glyph-name="dotlessi" horiz-adv-x="298" unicode="ı" d="M213 537v-537h-129v537h129z"/>
<glyph glyph-name="Delta" horiz-adv-x="780" unicode="Δ" d="M533 88q-23 67 -76 236t-68 215l-7 37h-12l-7 -36l-137 -452h307zM703 0h-615l229 706h150z"/>
<glyph glyph-name="Delta" horiz-adv-x="780" unicode="∆" d="M533 88q-23 67 -76 236t-68 215l-7 37h-12l-7 -36l-137 -452h307zM703 0h-615l229 706h150z"/>
<glyph glyph-name="pi" horiz-adv-x="780" unicode="π" d="M280 422v-422h-130v422h-100l-23 115h710v-115h-153v-266q0 -29 16.5 -47t38.5 -18q36 0 94 28l37 -83q-73 -47 -156 -47q-70 0 -114.5 45t-44.5 121v267h-175z"/>
<glyph glyph-name="afii10023" horiz-adv-x="565" unicode="Ё" d="M349 852q0 35 17 54t62 19q44 0 61 -19t17 -54q0 -34 -17 -53t-61 -19q-45 0 -62 19t-17 53zM111 852q0 35 17 54t61 19q45 0 61.5 -19t16.5 -54q0 -34 -16.5 -53t-61.5 -19q-44 0 -61 19t-17 53zM496 706v-107h-269v-177h241v-108h-241v-207h269v-107h-406v706h406z"/>
<glyph glyph-name="afii10051" horiz-adv-x="722" unicode="Ђ" d="M498 706l-15 -107h-154v-151q80 78 167 78q27 0 51 -6.5t50.5 -23t42 -53t15.5 -88.5v-409q0 -167 -167 -167q-68 0 -107 15l16 87q51 -12 63 -12q58 0 58 80v390q0 87 -62 87q-70 0 -127 -90v-336h-138v599h-167v107h474z"/>
<glyph glyph-name="afii10052" horiz-adv-x="512" unicode="Ѓ" d="M356 926h125l-131 -174h-93zM491 706l-15 -102h-248v-604h-138v706h401z"/>
<glyph glyph-name="afii10053" horiz-adv-x="572" unicode="Є" d="M450 417l-16 -104h-241q0 -108 30 -164t111 -56q26 0 61.5 7.5t51.5 15.5l33 15l45 -89q-74 -53 -191 -53q-152 0 -218 92.5t-66 271.5t66 271.5t217 92.5q104 0 193 -42l-40 -97l-35 15q-52 20 -114 20q-71 0 -106 -55.5t-37 -140.5h256z"/>
<glyph glyph-name="afii10054" horiz-adv-x="540" unicode="Ѕ" d="M494 671l-50 -98q-90 44 -159 44q-45 0 -74 -21t-29 -62q0 -46 25 -68t99 -45q43 -14 74 -30.5t60.5 -43t44.5 -68t15 -96.5q0 -194 -235 -194q-126 0 -243 75l49 93q70 -36 110 -50t84 -14q97 0 97 88q0 50 -23 76t-97 49q-24 7 -37 11.5t-37 15t-38 20.5t-32 28 t-28 38.5t-17 50t-7 64.5q0 93 66.5 140t171.5 47q62 0 105 -10.5t105 -39.5z"/>
<glyph glyph-name="afii10055" horiz-adv-x="317" unicode="І" d="M227 706v-706h-137v706h137z"/>
<glyph glyph-name="afii10056" horiz-adv-x="354" unicode="Ї" d="M220 852q0 35 17 54t62 19q44 0 61 -19t17 -54q0 -34 -17 -53t-61 -19q-45 0 -62 19t-17 53zM-18 852q0 35 17 54t61 19q45 0 61.5 -19t16.5 -54q0 -34 -16.5 -53t-61.5 -19q-44 0 -61 19t-17 53zM240 706v-706h-138v706h138z"/>
<glyph glyph-name="afii10057" horiz-adv-x="398" unicode="Ј" d="M130 -14q-79 0 -138 40l40 98q52 -27 82 -27q26 0 41.5 15t15.5 38v555h137v-546q0 -91 -44.5 -132t-133.5 -41z"/>
<glyph glyph-name="afii10058" horiz-adv-x="943" unicode="Љ" d="M578 107h83q55 0 81 26.5t26 82.5t-24 73.5t-83 17.5h-83v-200zM441 0v599h-169q-1 -414 -65 -519q-30 -49 -72.5 -69.5t-103.5 -20.5l-25 106q41 0 56.5 6t33.5 23q21 20 33.5 173.5t12.5 407.5h436v-292h99q110 0 171.5 -43.5t61.5 -154.5q0 -122 -61 -169t-170 -47 h-238z"/>
<glyph glyph-name="afii10059" horiz-adv-x="978" unicode="Њ" d="M612 107h83q54 0 77 26.5t23 79.5q0 52 -22 73t-78 21h-83v-200zM475 0v307h-247v-307h-138v706h138v-292h247v292h137v-292h99q226 0 226 -201q0 -213 -224 -213h-238z"/>
<glyph glyph-name="afii10060" horiz-adv-x="721" unicode="Ћ" d="M498 706l-15 -107h-154v-150q84 77 161 77q164 0 164 -175v-351h-137v338q0 45 -16 66.5t-52 21.5q-34 0 -62 -23.5t-58 -65.5v-337h-138v599h-167v107h474z"/>
<glyph glyph-name="afii10061" horiz-adv-x="630" unicode="Ќ" d="M390 926h125l-129 -174h-95zM90 706h138v-290h50q40 0 58 55l47 138q33 98 196 104l19 -93q-33 -3 -59 -14.5t-31 -27.5l-34 -108q-14 -44 -31 -66t-46 -31v-5q60 -28 76 -84l48 -158q14 -42 83 -42l-21 -95q-92 2 -137.5 30t-64.5 92l-37 129q-9 30 -26.5 49.5 t-38.5 19.5h-51v-309h-138v706z"/>
<glyph glyph-name="afii10062" horiz-adv-x="606" unicode="Ў" d="M320 758q-39 0 -71 10.5t-51 25.5t-32 31.5t-18 27.5t-5 16l62 48q1 -6 11.5 -19.5t39 -28.5t65.5 -15t65.5 15.5t38.5 28.5t11 19l62 -48q0 -3 -5.5 -14t-19.5 -28t-33.5 -32t-51 -26t-68.5 -11zM266 142l-237 564h140l149 -387l9 -52h4l9 52l115 387h137l-201 -573 q-29 -86 -66 -115t-100 -29q-79 0 -138 34l30 94q57 -25 87 -25q26 0 39.5 13t22.5 37z"/>
<glyph glyph-name="afii10145" horiz-adv-x="690" unicode="Џ" d="M414 -173h-138v173h-186v706h138v-600h235v600h137v-706h-186v-173z"/>
<glyph glyph-name="afii10017" horiz-adv-x="611" unicode="А" d="M378 292l-64 262l-7 63h-6l-7 -63l-63 -262h147zM463 0l-56 192h-204l-55 -192h-139l214 706h165l213 -706h-138z"/>
<glyph glyph-name="afii10018" horiz-adv-x="608" unicode="Б" d="M228 104h73q60 0 83.5 29t23.5 89q0 59 -22.5 85t-81.5 26h-76v-229zM90 0v706h409l-14 -104h-257v-165h78q60 0 101.5 -8t76 -30t51 -65t16.5 -108q0 -115 -61 -170.5t-186 -55.5h-214z"/>
<glyph glyph-name="afii10019" horiz-adv-x="611" unicode="В" d="M228 420h76q43 0 63 28.5t20 71.5q0 44 -23 65t-58 21h-78v-186zM228 100h94q48 0 73.5 29t25.5 74q0 121 -98 121h-95v-224zM332 0h-242v706h227q90 0 146.5 -40.5t56.5 -133.5q0 -83 -73 -128q-13 -8 -27 -10v-6q1 0 6 -1t12 -2.5t12 -4.5q109 -50 109 -178 q0 -98 -66.5 -150t-160.5 -52z"/>
<glyph glyph-name="afii10020" horiz-adv-x="519" unicode="Г" d="M491 706l-15 -104h-248v-602h-138v706h401z"/>
<glyph glyph-name="afii10021" horiz-adv-x="730" unicode="Д" d="M263 188q-7 -23 -40 -84h242v498h-157q-1 -264 -45 -414zM9 -176v280h92q27 37 42 86q11 38 17.5 76t12.5 150t6 290h423v-602h112l-16 -280h-122v176h-435l-9 -176h-123z"/>
<glyph glyph-name="afii10022" horiz-adv-x="558" unicode="Е" d="M496 706v-104h-269v-184h241v-102h-241v-212h269v-104h-406v706h406z"/>
<glyph glyph-name="afii10024" horiz-adv-x="931" unicode="Ж" d="M397 706h138v-291h31q17 0 34.5 12.5t24.5 38.5l53 142q15 54 75.5 81.5t124.5 27.5l18 -93q-84 -9 -94 -52l-36 -100q-16 -50 -38 -71q-20 -20 -43 -27v-4q32 -16 52 -37q23 -25 32 -54l51 -158q12 -38 77 -38h4l-21 -94q-80 0 -129 27t-72 97l-41 127q-9 35 -28 53.5 t-41 18.5h-34v-312h-138v310h-24q-34 0 -51 -16.5t-28 -53.5l-42 -132q-37 -119 -201 -119l-21 95q70 3 80 35l54 161q11 30 30 51q22 23 53 37v4q-27 9 -46 31q-17 21 -35 69l-32 87q-10 33 -29.5 45t-68.5 20l20 93q157 0 197 -108l51 -138q11 -32 27 -44t40 -12h26v291z "/>
<glyph glyph-name="afii10025" horiz-adv-x="543" unicode="З" d="M103 585l-43 85q36 19 88 33t95 14q119 0 171.5 -49t52.5 -127q0 -60 -31 -102t-73 -53v-5q26 -7 32 -10q41 -20 67 -62t26 -100q0 -220 -254 -220q-119 0 -197 48l51 92q74 -38 139 -38q57 0 89 30.5t32 89.5q0 55 -36.5 81t-89.5 26h-81l-14 93h104q39 0 71 31t32 81 q0 39 -24 66.5t-72 27.5q-70 0 -135 -32z"/>
<glyph glyph-name="afii10026" horiz-adv-x="742" unicode="И" d="M220 706v-492l-10 -74l8 -1l28 75l260 492h149v-706h-133v496l12 66l-8 1l-22 -60l-258 -503h-159v706h133z"/>
<glyph glyph-name="afii10027" horiz-adv-x="742" unicode="Й" d="M220 706v-492l-10 -74l8 -1l28 75l260 492h149v-706h-133v496l12 66l-8 1l-22 -60l-258 -503h-159v706h133zM378 758q-39 0 -71 10.5t-51 25.5t-32 31.5t-18 27.5t-5 16l62 48q1 -6 11.5 -19.5t39 -28.5t65.5 -15t65.5 15.5t38.5 28.5t11 19l62 -48q0 -3 -5.5 -14 t-19.5 -28t-33.5 -32t-51 -26t-68.5 -11z"/>
<glyph glyph-name="afii10028" horiz-adv-x="643" unicode="К" d="M90 706h138v-292h54q18 0 35.5 18t27.5 44l51 137q35 98 196 104l19 -93q-77 -8 -90 -42l-39 -107q-17 -47 -34.5 -70t-46.5 -32v-5q61 -29 80 -84l53 -158q14 -42 83 -42l-21 -95q-91 2 -136 30t-66 92l-41 129q-23 70 -70 70h-55v-310h-138v706z"/>
<glyph glyph-name="afii10029" horiz-adv-x="656" unicode="Л" d="M566 0h-138v602h-148q-1 -416 -65 -521q-57 -91 -180 -91l-21 100q60 0 89 29q21 20 33.5 176t12.5 411h417v-706z"/>
<glyph glyph-name="afii10030" horiz-adv-x="873" unicode="М" d="M679 0l-21 522l6 53h-11l-11 -54l-138 -521h-149l-126 519l-11 56h-12l4 -57l-23 -518h-128l48 706h197l132 -546l5 -68h8l4 68l139 546h188l34 -706h-135z"/>
<glyph glyph-name="afii10031" horiz-adv-x="702" unicode="Н" d="M475 0v312h-247v-312h-138v706h138v-291h247v291h137v-706h-137z"/>
<glyph glyph-name="afii10032" horiz-adv-x="649" unicode="О" d="M188 352q0 -59 5 -101.5t18.5 -83.5t42 -62t70.5 -21q43 0 71.5 21.5t42.5 61.5t19 83t5 102q0 46 -2.5 81.5t-11.5 72t-23.5 60t-40 38.5t-60.5 15t-60 -15t-39.5 -38.5t-23 -60t-11 -72t-2.5 -81.5zM46 352q0 364 278 364q279 0 279 -364q0 -365 -279 -365 q-278 0 -278 365z"/>
<glyph glyph-name="afii10033" horiz-adv-x="696" unicode="П" d="M228 602v-602h-138v706h516v-706h-137v602h-241z"/>
<glyph glyph-name="afii10034" horiz-adv-x="589" unicode="Р" d="M307 602h-79v-242h79q60 0 83 31t23 93q0 60 -21.5 89t-84.5 29zM90 0v706h238q118 0 173 -50.5t55 -171.5q0 -104 -58 -166t-170 -62h-100v-256h-138z"/>
<glyph glyph-name="afii10035" horiz-adv-x="559" unicode="С" d="M515 667l-36 -97q-59 43 -140 43q-45 0 -76 -20.5t-46.5 -58.5t-22 -81t-6.5 -100q0 -262 151 -262q51 0 99 26q30 16 41 24l39 -97q-86 -55 -179 -55q-293 0 -293 364q0 363 294 363q93 0 175 -49z"/>
<glyph glyph-name="afii10036" horiz-adv-x="529" unicode="Т" d="M510 706v-104h-175v-602h-137v602h-179v104h491z"/>
<glyph glyph-name="afii10037" horiz-adv-x="606" unicode="У" d="M266 142l-237 564h137l150 -387l9 -60h6l9 60l115 387h137l-201 -573q-29 -86 -66 -115t-100 -29q-87 0 -138 29l29 94q48 -20 88 -20q26 0 39.5 13t22.5 37z"/>
<glyph glyph-name="afii10038" horiz-adv-x="805" unicode="Ф" d="M177 376q0 -111 25.5 -152t92.5 -41q22 0 36 2v388h-37q-67 0 -92 -50t-25 -147zM623 376q0 95 -25 146t-91 51h-38v-388q14 -2 38 -2q38 0 62.5 13.5t35.5 42t14.5 59t3.5 78.5zM753 378q0 -140 -55 -207t-193 -67h-36v-104h-137v104h-34q-76 0 -127 20t-77 59t-36 85 t-10 110q0 136 59.5 205t188.5 69l36 -2v94h137v-93l35 2q136 0 192.5 -73t56.5 -202z"/>
<glyph glyph-name="afii10039" horiz-adv-x="610" unicode="Х" d="M577 706l-193 -340q17 -32 196 -366h-158l-117 240q-22 -41 -64.5 -123t-60.5 -117h-150l196 351q-35 66 -106 197.5t-85 157.5h155l117 -237q64 122 127 237h143z"/>
<glyph glyph-name="afii10040" horiz-adv-x="715" unicode="Ц" d="M90 0v706h138v-602h236v602h137v-602h100l-13 -280h-124v176h-474z"/>
<glyph glyph-name="afii10041" horiz-adv-x="644" unicode="Ч" d="M417 706h137v-706h-138v274q-82 -18 -142 -18q-115 0 -164 54t-49 158v238h136v-253q0 -49 23.5 -70.5t73.5 -21.5q66 0 123 10v335z"/>
<glyph glyph-name="afii10042" horiz-adv-x="947" unicode="Ш" d="M90 0v706h137v-602h176v602h139v-602h178v602h137v-706h-767z"/>
<glyph glyph-name="afii10043" horiz-adv-x="974" unicode="Щ" d="M90 0v706h137v-603h179v603h137v-603h179v603h137v-603h104l-11 -279h-126l-1 176h-735z"/>
<glyph glyph-name="afii10044" horiz-adv-x="647" unicode="Ъ" d="M285 102h91q100 0 100 134q0 62 -24 90t-74 28h-93v-252zM147 0v602h-182v104h319v-250h108q230 0 230 -222q0 -115 -59.5 -174.5t-168.5 -59.5h-247z"/>
<glyph glyph-name="afii10045" horiz-adv-x="877" unicode="Ы" d="M228 98h85q58 0 84 34.5t26 103.5q0 66 -25.5 93.5t-84.5 27.5h-85v-259zM90 0v706h138v-251h106q119 0 173.5 -53.5t54.5 -167.5q0 -234 -226 -234h-246zM649 0v706h138v-706h-138z"/>
<glyph glyph-name="afii10046" horiz-adv-x="593" unicode="Ь" d="M228 102h91q100 0 100 134q0 62 -24 90t-74 28h-93v-252zM90 0v706h138v-250h108q228 0 228 -221q0 -116 -58.5 -175.5t-168.5 -59.5h-247z"/>
<glyph glyph-name="afii10047" horiz-adv-x="571" unicode="Э" d="M136 311l-13 102h253v13q0 45 -12.5 86.5t-45 73t-78.5 31.5q-79 0 -159 -36l-26 92q92 45 185 45q140 0 210.5 -96.5t70.5 -269.5q0 -175 -71.5 -269t-218.5 -94q-109 0 -179 49l38 94q71 -42 135 -42q68 1 101 39.5t45 108.5q5 30 7 73h-242z"/>
<glyph glyph-name="afii10048" horiz-adv-x="925" unicode="Ю" d="M464 353q0 -59 5 -102t18.5 -83.5t42 -62t70.5 -21.5q43 0 71.5 21.5t42.5 62t19 83.5t5 102q0 46 -2.5 82t-11.5 73t-23.5 61t-40 39.5t-60.5 15.5t-60 -15.5t-39.5 -39.5t-23 -61t-11 -72.5t-2.5 -82.5zM228 706v-292h96q21 304 276 304q279 0 279 -365 q0 -366 -279 -366q-263 0 -277 325h-95v-312h-138v706h138z"/>
<glyph glyph-name="afii10049" horiz-adv-x="636" unicode="Я" d="M409 599h-81q-51 0 -71.5 -22t-20.5 -75t20 -74t72 -21h81v192zM409 300h-31q-49 0 -69 -49l-67 -154q-48 -108 -197 -108l-22 98q71 4 87 40l57 125q15 34 40 56q22 16 36 21v5q-11 0 -41 6q-49 11 -77.5 52.5t-28.5 109.5q0 204 208 204h242v-706h-137v300z"/>
<glyph glyph-name="afii10065" horiz-adv-x="557" unicode="а" d="M234 71q47 0 111 54v111q-61 -5 -111 -14q-65 -12 -65 -83q0 -68 65 -68zM474 0h-97l-12 59q-60 -70 -147 -70q-91 0 -134.5 33.5t-43.5 118.5q0 78 45.5 114t150.5 47q16 2 55 4.5t54 3.5v67q0 38 -21 60t-57 22q-70 0 -174 -47l-25 90q89 46 199 46q62 0 104.5 -15.5 t64 -43.5t30 -59t8.5 -70v-360z"/>
<glyph glyph-name="afii10066" horiz-adv-x="593" unicode="б" d="M192 261q0 -43 3.5 -71.5t13.5 -55.5t32 -40.5t56 -13.5q63 0 84.5 43.5t21.5 137.5q0 83 -21.5 124.5t-84.5 41.5q-61 0 -83 -45.5t-22 -120.5zM56 261q0 211 41.5 316.5t157.5 135.5q33 8 135 30q13 2 22.5 11.5t9.5 21.5l92 -7q0 -117 -120 -138q-96 -17 -127 -25 q-32 -12 -53 -30.5t-31 -45.5t-13.5 -46t-5.5 -50q17 26 31.5 41t49.5 29t83 14q112 0 161.5 -65.5t49.5 -191.5q0 -272 -242 -272q-130 0 -185.5 71.5t-55.5 200.5z"/>
<glyph glyph-name="afii10067" horiz-adv-x="565" unicode="в" d="M212 451v-128h93q53 0 53 64t-48 64h-98zM212 236v-150h111q60 0 60 77q0 73 -70 73h-101zM488 405q0 -78 -72 -104v-4q17 -1 45 -20q57 -39 57 -116q0 -83 -45 -122t-151 -39h-239v537h230q175 0 175 -132z"/>
<glyph glyph-name="afii10068" horiz-adv-x="439" unicode="г" d="M212 0h-129v537h322v-97h-193v-440z"/>
<glyph glyph-name="afii10069" horiz-adv-x="618" unicode="д" d="M382 447h-113q-3 -124 -28 -254q-11 -60 -34 -103h175v357zM586 -155h-118v155h-324l-8 -155h-114v245h78q42 115 52 447h360v-447h83z"/>
<glyph glyph-name="afii10070" horiz-adv-x="560" unicode="е" d="M295 462q-57 0 -83 -40t-26 -98h200q0 65 -20 101.5t-71 36.5zM299 548q121 0 167 -73t46 -228h-327v-22q8 -144 110 -144q110 0 182 36l22 -88q-87 -40 -207 -40q-123 0 -183.5 72t-60.5 203t61 207.5t190 76.5z"/>
<glyph glyph-name="afii10072" horiz-adv-x="787" unicode="ж" d="M459 0h-130v235h-17q-18 0 -34 -15.5t-22 -36.5l-21 -75q-19 -69 -63 -94t-124 -25l-17 92q60 0 68 21q4 16 13 46t13 46q20 67 74 91v4q-37 10 -62 72l-29 81q-12 22 -71 22l9 84q37 0 63 -3.5t54 -14.5t47.5 -35.5t29.5 -61.5l13 -43q8 -27 25.5 -45t37.5 -18h13v210 h130v-210h15q20 0 36.5 18t23.5 43q1 5 6 20.5t7 23.5q18 67 68 94q38 21 126 21l8 -82q-63 -5 -71 -26q-5 -13 -15.5 -43.5t-12.5 -35.5q-25 -62 -62 -71v-4q54 -22 74 -91l24 -86q7 -27 70 -27l-17 -92q-79 0 -123.5 25.5t-64.5 95.5l-20 73q-6 21 -21 36.5t-33 15.5h-18 v-235z"/>
<glyph glyph-name="afii10073" horiz-adv-x="508" unicode="з" d="M74 427l-28 82q90 36 194 36q191 0 191 -143q0 -78 -91 -107v-4q111 -30 111 -136q0 -87 -54 -126.5t-167 -39.5q-110 0 -195 44l32 86q92 -42 163 -42q84 0 84 77q0 46 -24 64.5t-74 18.5h-86v84h92q33 0 56 19t23 58q0 58 -73 58q-77 0 -154 -29z"/>
<glyph glyph-name="afii10074" horiz-adv-x="624" unicode="и" d="M197 0h-114v537h125v-314l-11 -72l5 -1l20 52l206 335h113v-537h-125v318l11 71l-6 1l-18 -49z"/>
<glyph glyph-name="afii10075" horiz-adv-x="624" unicode="й" d="M197 0h-114v537h125v-314l-11 -72l5 -1l20 52l206 335h113v-537h-125v318l11 71l-6 1l-18 -49zM320 592q-42 0 -76 14.5t-51 34.5t-26 37t-9 27l65 37q1 -2 6.5 -11.5t8.5 -13.5t11 -11.5t16.5 -11t23 -6.5t32.5 -3t32.5 3.5t23 6.5t17.5 11.5t11 11t9 13.5l6 11l65 -36 q0 -10 -9 -27.5t-27 -37.5t-52 -34.5t-77 -14.5z"/>
<glyph glyph-name="afii10076" horiz-adv-x="559" unicode="к" d="M213 0h-130v537h130v-209h32q37 0 62 53q15 33 23 58q23 57 63 83t119 26l9 -92q-49 0 -67 -37q-18 -45 -26 -70q-8 -23 -26 -41.5t-37 -22.5v-4q40 -14 61 -73l38 -99q14 -26 70 -30l-16 -92q-58 0 -91 12q-65 23 -97 109l-31 86q-17 44 -53 44h-33v-238z"/>
<glyph glyph-name="afii10077" horiz-adv-x="584" unicode="л" d="M501 0h-129v445h-120q0 -257 -39 -357q-9 -24 -21 -41.5t-28.5 -28t-30 -16.5t-37 -8.5t-36.5 -3.5t-41 -1l-14 87q82 0 99 40q9 21 14.5 55t8.5 88t4 86.5t1.5 104t0.5 87.5h368v-537z"/>
<glyph glyph-name="afii10078" horiz-adv-x="819" unicode="м" d="M615 0l-8 374l5 60h-9l-133 -437h-144l-120 436h-10l4 -60l-10 -373h-109l28 537h178l113 -401l6 -56h7l7 56l119 401h175l24 -537h-123z"/>
<glyph glyph-name="afii10079" horiz-adv-x="619" unicode="н" d="M212 0h-129v537h129v-209h195v209h129v-537h-129v234h-195v-234z"/>
<glyph glyph-name="afii10080" horiz-adv-x="586" unicode="о" d="M188 264q0 -42 4 -73t15 -59.5t32.5 -43.5t53.5 -15q63 0 84.5 47.5t21.5 143.5q0 48 -4 81.5t-15 62t-32.5 42.5t-54.5 14q-32 0 -53.5 -16.5t-32.5 -46.5t-15 -62.5t-4 -74.5zM52 264q0 63 11.5 112t38 89t75 61.5t116.5 21.5q133 0 187 -74t54 -210q0 -135 -53.5 -205 t-187.5 -70q-131 0 -186 72.5t-55 202.5z"/>
<glyph glyph-name="afii10081" horiz-adv-x="609" unicode="п" d="M212 0h-129v537h443v-537h-129v445h-185v-445z"/>
<glyph glyph-name="afii10082" horiz-adv-x="594" unicode="р" d="M333 76q42 0 59.5 43.5t17.5 138.5q0 96 -17.5 143.5t-59.5 47.5q-55 0 -121 -44v-294q55 -35 121 -35zM83 -221v746h100l13 -52q70 63 150 63q48 0 83.5 -14t57.5 -37.5t35 -60t17.5 -75.5t4.5 -91q0 -128 -44.5 -198.5t-148.5 -70.5q-44 0 -73.5 8t-65.5 31v-249h-129z "/>
<glyph glyph-name="afii10083" horiz-adv-x="520" unicode="с" d="M457 504l-31 -92q-64 43 -131 43q-105 0 -105 -189q0 -90 27 -137t78 -47q78 0 135 40l28 -88q-68 -45 -163 -45q-125 0 -184.5 75t-59.5 202q0 128 60 205t184 77q97 0 162 -44z"/>
<glyph glyph-name="afii10084" horiz-adv-x="459" unicode="т" d="M293 0h-129v437h-150v100h429v-100h-150v-437z"/>
<glyph glyph-name="afii10085" horiz-adv-x="539" unicode="у" d="M219 -36l-206 573h138l116 -371l9 -63h4l9 63l99 371h135l-142 -425q-9 -27 -31 -110t-33 -111q-20 -52 -58 -82t-89 -30q-75 0 -134 29l26 83q46 -19 83 -19q40 0 55 39z"/>
<glyph glyph-name="afii10086" horiz-adv-x="832" unicode="ф" d="M265 467q-77 0 -77 -195q0 -101 17.5 -150t60.5 -49q48 0 86 24v341q-47 29 -87 29zM567 467q-40 0 -87 -29v-341q38 -24 86 -24q42 0 60 49.5t18 149.5q0 195 -77 195zM481 747v-230q62 32 122 32q88 0 134.5 -71t46.5 -206q0 -128 -50 -205.5t-142 -77.5q-73 0 -111 24 v-234h-129v235q-18 -11 -52.5 -18t-59.5 -7q-92 0 -142 77.5t-50 205.5q0 134 47.5 205.5t134.5 71.5q67 0 122 -33v231h129z"/>
<glyph glyph-name="afii10087" horiz-adv-x="518" unicode="х" d="M495 537l-161 -264q17 -28 80 -128t92 -145h-142l-105 172l-106 -172h-142l174 264q-97 167 -163 273h140l96 -171l96 171h141z"/>
<glyph glyph-name="afii10088" horiz-adv-x="628" unicode="ц" d="M587 -155h-107v155h-397v537h129v-447h178v447h129v-447h79z"/>
<glyph glyph-name="afii10089" horiz-adv-x="556" unicode="ч" d="M346 280l1 257h129v-537h-129v194q-66 -22 -110 -22q-99 0 -144.5 40t-45.5 143v182h129v-203q0 -30 17 -50.5t53 -20.5q55 0 100 17z"/>
<glyph glyph-name="afii10090" horiz-adv-x="850" unicode="ш" d="M83 537h129v-445h148v445h129v-445h148v445h130v-537h-684v537z"/>
<glyph glyph-name="afii10091" horiz-adv-x="876" unicode="щ" d="M832 -155h-106v155h-643v537h129v-445h148v445h129v-445h148v445h129v-445h77z"/>
<glyph glyph-name="afii10092" horiz-adv-x="565" unicode="ъ" d="M266 263v-172h87q53 0 53 95q0 77 -54 77h-86zM137 0v437h-151v98h280v-181h79q106 0 152 -42.5t46 -125.5q0 -86 -47 -136t-151 -50h-208z"/>
<glyph glyph-name="afii10093" horiz-adv-x="768" unicode="ы" d="M212 263v-172h87q54 0 54 94q0 78 -55 78h-86zM83 0v535h129v-181h80q105 0 151 -43t46 -126q0 -185 -197 -185h-209zM556 0v537h129v-537h-129z"/>
<glyph glyph-name="afii10094" horiz-adv-x="521" unicode="ь" d="M213 266v-178h87q35 0 49 29.5t14 67.5q0 32 -15.5 56.5t-48.5 24.5h-86zM83 0v535h130v-181h83q203 0 203 -169q0 -85 -49.5 -135t-153.5 -50h-213z"/>
<glyph glyph-name="afii10095" horiz-adv-x="513" unicode="э" d="M123 235l-16 88h217q-4 67 -29 100.5t-83 33.5q-26 0 -67 -11.5t-70 -28.5l-23 88q86 43 174 43q121 0 178 -79.5t57 -208.5q0 -125 -58.5 -198t-179.5 -73q-112 0 -171 44l19 93q25 -18 68 -30.5t73 -12.5q61 0 86.5 36t28.5 116h-204z"/>
<glyph glyph-name="afii10096" horiz-adv-x="818" unicode="ю" d="M418 264q0 -87 23 -137t84 -50q63 0 85.5 46t22.5 141q0 102 -21 149.5t-87 47.5q-33 0 -55 -15t-33 -44.5t-15 -61.5t-4 -76zM83 0v537h129v-212h76q12 104 66.5 163.5t170.5 59.5q132 0 186.5 -74t54.5 -209q0 -276 -241 -276q-230 0 -240 248h-73v-237h-129z"/>
<glyph glyph-name="afii10097" horiz-adv-x="585" unicode="я" d="M373 297v150h-113q-28 0 -41 -22.5t-13 -50.5q0 -30 14.5 -53.5t44.5 -23.5h108zM502 537v-537h-129v207h-41q-55 0 -67 -31l-45 -103q-19 -50 -65 -66t-124 -16l-11 86h4q25 0 49.5 8.5t31.5 21.5l45 85q5 10 20 23t32 16v4q-75 9 -104.5 44.5t-29.5 94.5q0 83 43.5 123 t152.5 40h238z"/>
<glyph glyph-name="afii10071" horiz-adv-x="570" unicode="ё" d="M300 462q-57 0 -83 -40t-26 -98h200q0 65 -20 101.5t-71 36.5zM304 548q121 0 167 -73t46 -228h-327v-22q8 -144 110 -144q110 0 182 36l22 -88q-87 -40 -207 -40q-123 0 -183.5 72t-60.5 203t61 207.5t190 76.5zM343 709q0 34 17 53.5t61 19.5t61 -19.5t17 -53.5 t-17 -53t-61 -19t-61 19t-17 53zM106 709q0 34 17 53.5t61 19.5t60.5 -19.5t16.5 -53.5t-16.5 -53t-60.5 -19t-61 19t-17 53z"/>
<glyph glyph-name="afii10099" horiz-adv-x="601" unicode="ђ" d="M21 599v86h53v87h129v-87h286l-19 -86h-267v-129q14 15 23 22.5t28 20t43.5 18.5t55.5 6q70 0 119 -41.5t49 -126.5v-406q0 -84 -45.5 -134t-118.5 -50q-63 0 -99 15l20 93q25 -7 49 -7q29 0 47 20t18 61v401q0 77 -65 77q-36 0 -65 -21.5t-59 -59.5v-358h-129v599h-53z "/>
<glyph glyph-name="afii10100" horiz-adv-x="436" unicode="ѓ" d="M293 851l101 -45l-116 -210l-79 35zM209 0h-129v537h322v-97h-193v-440z"/>
<glyph glyph-name="afii10101" horiz-adv-x="463" unicode="є" d="M386 323l-22 -93h-193q2 -76 26.5 -110.5t79.5 -34.5q51 0 82 7l56 17l27 -79q-21 -14 -69.5 -27t-97.5 -13q-127 0 -184.5 68.5t-57.5 202.5q0 135 58 210.5t176 75.5q51 0 99.5 -11.5t69.5 -22.5l-32 -86l-53 15q-35 10 -77 10q-44 0 -69 -34.5t-30 -94.5h211z"/>
<glyph glyph-name="afii10102" horiz-adv-x="470" unicode="ѕ" d="M430 508l-37 -87q-67 35 -142 35q-79 0 -79 -59q0 -28 23 -43.5t76 -33.5q42 -14 64.5 -24t50 -30t40 -51t12.5 -74q0 -45 -18.5 -76.5t-51 -47t-66 -22t-72.5 -6.5q-115 0 -197 43l29 84q91 -39 168 -39q37 0 58.5 15t21.5 44q0 28 -16 42.5t-69 30.5q-27 8 -45.5 15 t-45.5 22t-43.5 33t-29 48t-12.5 66q0 81 58 118t142 37q109 0 181 -40z"/>
<glyph glyph-name="afii10103" horiz-adv-x="303" unicode="і" d="M70 701q0 35 17.5 55.5t64.5 20.5q82 0 82 -76q0 -36 -18 -56.5t-64 -20.5q-47 0 -64.5 20.5t-17.5 56.5zM216 536v-536h-129v536h129z"/>
<glyph glyph-name="afii10104" horiz-adv-x="425" unicode="ї" d="M252 709q0 34 17 53.5t61 19.5t61 -19.5t17 -53.5t-17 -53t-61 -19t-61 19t-17 53zM15 709q0 34 17 53.5t61 19.5t60.5 -19.5t16.5 -53.5t-16.5 -53t-60.5 -19t-61 19t-17 53zM276 537v-537h-129v537h129z"/>
<glyph glyph-name="afii10105" horiz-adv-x="315" unicode="ј" d="M79 701q0 76 82 76q47 0 65 -20.5t18 -55.5q0 -36 -18 -56.5t-65 -20.5q-46 0 -64 20.5t-18 56.5zM227 536v-572q0 -85 -53.5 -135t-145.5 -50q-50 0 -95 16l20 94q29 -11 73 -11q28 0 50 22t22 64v572h129z"/>
<glyph glyph-name="afii10106" horiz-adv-x="807" unicode="љ" d="M508 235v-144h84q55 0 55 78q0 66 -56 66h-83zM379 0v445h-117q-5 -265 -37 -351q-14 -36 -32.5 -58t-47 -31.5t-51.5 -12.5t-64 -3l-16 88q23 0 32 1q56 5 68 40q27 85 27 278v141h367v-211h79q106 0 152.5 -39t46.5 -116q0 -76 -48 -123.5t-151 -47.5h-208z"/>
<glyph glyph-name="afii10107" horiz-adv-x="810" unicode="њ" d="M513 235v-144h86q52 0 52 76q0 68 -53 68h-85zM383 0v235h-174v-235h-129v536h129v-210h174v210h130v-210h79q105 0 151 -40t46 -117q0 -76 -47 -122.5t-150 -46.5h-209z"/>
<glyph glyph-name="afii10108" horiz-adv-x="605" unicode="ћ" d="M23 610v86h55v87h129v-87h280l-19 -86h-261v-139l17 16q16 16 23 20.5t25 15t38 14t45 3.5q72 0 121 -42.5t49 -136.5v-361h-129v356q0 87 -66 87q-63 0 -123 -86v-357h-129v610h-55z"/>
<glyph glyph-name="afii10109" horiz-adv-x="571" unicode="ќ" d="M345 851l101 -45l-116 -210l-79 35zM210 0h-130v537h130v-209h32q37 0 62 53q15 33 23 58q23 57 63 83t119 26l9 -92q-48 0 -67 -37l-16 -40t-8 -18.5t-2 -4.5q-28 -63 -63 -71v-4q33 -12 61 -77l38 -95q14 -26 70 -30l-16 -92q-58 0 -91 12q-65 23 -97 109l-31 86 q-17 44 -53 44h-33v-238z"/>
<glyph glyph-name="afii10110" horiz-adv-x="539" unicode="ў" d="M219 -36l-206 573h138l116 -371l9 -63h4l9 63l99 371h135l-142 -425q-9 -27 -31 -110t-33 -111q-20 -52 -58 -82t-89 -30q-75 0 -134 29l26 83q46 -19 83 -19q40 0 55 39zM270 592q-42 0 -76 14.5t-51 34.5t-26 37t-9 27l65 37q1 -1 8 -14t11.5 -17.5t15 -13.5 t26.5 -12.5t37 -3.5q18 0 32.5 3.5t23.5 7.5t17 12t11 12.5t8.5 14t6.5 11.5l65 -36q0 -10 -9 -27t-27 -37.5t-52 -35t-77 -14.5z"/>
<glyph glyph-name="afii10193" horiz-adv-x="607" unicode="џ" d="M240 -155v155h-160v537h129v-407l-3 -30h194l-2 30v407h129v-537h-160v-155h-127z"/>
<glyph glyph-name="afii10050" horiz-adv-x="508" unicode="Ґ" d="M227 605v-605h-137v712h293q1 4 9.5 60.5t11.5 78.5h96l-14 -246h-259z"/>
<glyph glyph-name="afii10098" horiz-adv-x="449" unicode="ґ" d="M209 0h-129v537h225l19 113h95l-9 -209h-201v-441z"/>
<glyph glyph-name="uni2003" horiz-adv-x="199" unicode=" "/>
<glyph glyph-name="endash" horiz-adv-x="745" unicode="–" d="M105 247v99h535v-99h-535z"/>
<glyph glyph-name="emdash" horiz-adv-x="881" unicode="—" d="M70 247v99h741v-99h-741z"/>
<glyph glyph-name="quoteleft" horiz-adv-x="274" unicode="‘" d="M50 538v7q0 45 35 114.5t62 91.5l64 -28q-31 -52 -43 -111q33 -2 44.5 -20.5t11.5 -52.5q0 -38 -19 -59.5t-68 -21.5q-50 0 -68 20.5t-19 59.5z"/>
<glyph glyph-name="quoteright" horiz-adv-x="279" unicode="’" d="M229 635v-6q0 -45 -35 -114.5t-62 -91.5l-64 28q31 52 43 111q-33 2 -44.5 20.5t-11.5 51.5q0 38 19 60t68 22q50 0 68 -21t19 -60z"/>
<glyph glyph-name="quotesinglbase" horiz-adv-x="216" unicode="‚" d="M195 73v-7q0 -45 -35.5 -119.5t-61.5 -95.5l-64 27q34 58 44 121q-33 3 -45 21.5t-12 51.5q0 38 19 59.5t68 21.5q50 0 68 -21t19 -59z"/>
<glyph glyph-name="quotedblleft" horiz-adv-x="486" unicode="“" d="M271 549v7q0 45 35 114.5t62 91.5l64 -28q-31 -52 -43 -111q33 -2 44.5 -20.5t11.5 -52.5q0 -38 -19 -59.5t-68 -21.5q-50 0 -68 20.5t-19 59.5zM41 549v7q0 45 35 114.5t62 91.5l64 -28q-31 -52 -43 -111q33 -2 44.5 -20.5t11.5 -52.5q0 -38 -19 -59.5t-68 -21.5 q-50 0 -68 20.5t-19 59.5z"/>
<glyph glyph-name="quotedblright" horiz-adv-x="490" unicode="”" d="M449 622q0 -45 -35 -114.5t-62 -91.5l-64 28q36 60 46 111q-33 2 -45.5 20.5t-12.5 51.5q0 39 18.5 60.5t67.5 21.5q51 0 68.5 -21t18.5 -66zM215 622q0 -45 -35 -114.5t-62 -91.5l-64 28q35 59 47 111q-60 4 -60 72q0 38 19 60t68 22q51 0 68.5 -21t18.5 -66z"/>
<glyph glyph-name="quotedblbase" horiz-adv-x="516" unicode="„" d="M466 73v-7q0 -44 -35.5 -117.5t-61.5 -94.5l-64 27q24 40 43 118q-56 9 -56 73q0 38 19 59.5t68 21.5q50 0 68 -21t19 -59zM224 73v-7q0 -44 -35.5 -117.5t-61.5 -94.5l-64 27q22 37 44 118q-32 5 -44.5 23.5t-12.5 49.5q0 38 19 59.5t68 21.5q50 0 68 -21t19 -59z"/>
<glyph glyph-name="dagger" horiz-adv-x="455" unicode="†" d="M43 426v99h104l16 -1l-2 31v145h125v-145l-2 -31q2 0 8.5 0.5t8.5 0.5h103v-99h-103l-17 1l2 -29v-571h-125v572l2 28q-2 0 -8 -0.5t-8 -0.5h-104z"/>
<glyph glyph-name="daggerdbl" horiz-adv-x="455" unicode="‡" d="M403 91v-99h-103l-16 2l3 -32v-137h-126v137l2 32q-2 0 -9 -1t-8 -1h-103v99h103l17 -2l-2 29v289l2 29q-2 0 -8.5 -1t-7.5 -1h-104v99h104l16 -2l-2 32v137h125v-137l-2 -32q2 0 8.5 1t8.5 1h103v-99h-103l-17 2l2 -30v-288l-2 -29q2 0 8 1t8 1h103z"/>
<glyph glyph-name="bullet" horiz-adv-x="500" unicode="•" d="M91 343q0 63 46.5 108t111.5 45t111.5 -45t46.5 -108t-46.5 -107.5t-111.5 -44.5t-111.5 44.5t-46.5 107.5z"/>
<glyph glyph-name="ellipsis" horiz-adv-x="689" unicode="…" d="M495 71q0 38 18.5 59.5t68.5 21.5q49 0 67.5 -21.5t18.5 -59.5t-18.5 -59.5t-67.5 -21.5q-50 0 -68.5 21.5t-18.5 59.5zM257 71q0 38 19 59.5t68 21.5t68 -21.5t19 -59.5t-19 -59.5t-68 -21.5t-68 21.5t-19 59.5zM21 71q0 38 19 59.5t68 21.5t68 -21.5t19 -59.5 t-19 -59.5t-68 -21.5t-68 21.5t-19 59.5z"/>
<glyph glyph-name="perthousand" horiz-adv-x="1108" unicode="‰" d="M137 0l399 703h118l-398 -703h-119zM568 171q0 -66 6 -90.5t32 -24.5q25 0 31.5 22.5t6.5 92.5v35t-1 28.5t-3.5 25.5t-6.5 16.5t-11 12t-16 3.5t-16 -3.5t-11 -12t-6.5 -16.5t-3.5 -25.5t-1 -28.5v-35zM467 173q0 98 28 143t111 45q46 0 76 -14t43.5 -43t17.5 -57.5 t4 -73.5q0 -99 -26.5 -142.5t-114.5 -43.5q-36 0 -62 10t-40.5 25.5t-23 41t-11 50t-2.5 59.5zM891 171q0 -66 6 -90.5t32 -24.5q25 0 31.5 22.5t6.5 92.5v35t-1 28.5t-3.5 25.5t-6.5 16.5t-11 12t-16 3.5t-16 -3.5t-11 -12t-6.5 -16.5t-3.5 -25.5t-1 -28.5v-35zM790 173 q0 98 28 143t111 45q46 0 76 -14t43.5 -43t17.5 -57.5t4 -73.5q0 -99 -26.5 -142.5t-114.5 -43.5q-36 0 -62 10t-40.5 25.5t-23 41t-11 50t-2.5 59.5zM155 531q0 -66 6 -90.5t32 -24.5q25 0 31.5 22.5t6.5 92.5v35t-1 28.5t-3.5 25.5t-6.5 16.5t-11 12t-16 3.5t-16 -3.5 t-11 -12t-6.5 -16.5t-3.5 -25.5t-1 -28.5v-35zM54 533q0 98 28 143t111 45q46 0 76 -14t43.5 -43t17.5 -57.5t4 -73.5q0 -99 -26.5 -142.5t-114.5 -43.5q-36 0 -62 10t-40.5 25.5t-23 41t-11 50t-2.5 59.5z"/>
<glyph glyph-name="guilsinglleft" horiz-adv-x="337" unicode="‹" d="M50 271l108 206h129l-100 -206l100 -209h-129z"/>
<glyph glyph-name="guilsinglright" horiz-adv-x="338" unicode="›" d="M178 477l109 -206l-109 -209h-128l100 209l-100 206h128z"/>
<glyph glyph-name="Euro" horiz-adv-x="680" unicode="€" d="M575 675l-46 -92q-67 31 -132 31q-61 0 -92 -35t-45 -98h260l-30 -88h-242q-2 -10 -2 -37q0 -25 2 -33h223l-30 -88h-186q11 -69 43.5 -106.5t98.5 -37.5q64 0 132 42l46 -89q-78 -55 -190 -55q-231 0 -268 246h-77v88h69q-1 12 -1 32q0 25 1 38h-69v88h80 q48 236 278 236q93 0 177 -42z"/>
<glyph glyph-name="uni20B4" horiz-adv-x="681" unicode="₴" d="M67 467h296q29 38 29 72t-25 56.5t-65 22.5q-77 0 -176 -42l-33 83q42 22 106.5 38.5t113.5 16.5q117 0 167 -51q34 -35 34 -94q0 -61 -40 -102h59v-84h-123q-34 -39 -62 -65h184v-83h-256q-43 -37 -43 -84q0 -66 91 -66q90 0 191 54l45 -82q-40 -26 -104.5 -47 t-126.5 -21q-221 0 -221 138q0 66 43 108h-84v83h158q9 15 66 65h-224v84z"/>
<glyph glyph-name="afii61352" horiz-adv-x="1059" unicode="№" d="M717 123v87h255v-87h-255zM793 428q0 -43 9.5 -64t35.5 -21q29 0 38 18t9 67q0 87 -46 87q-28 0 -37 -21t-9 -66zM689 428q0 72 39.5 111.5t110.5 39.5q79 0 114.5 -41.5t35.5 -109.5q0 -70 -39 -109.5t-111 -39.5q-79 0 -114.5 41t-35.5 108zM90 706h171l199 -508 l35 -98l5 1l-16 103v349q0 91 29.5 126.5t109.5 35.5q30 0 93 -7l-20 -89q-2 0 -21 1.5t-27 1.5q-15 0 -24.5 -1.5t-21 -14.5t-11.5 -37v-569h-171l-201 509l-28 78l-5 -2l11 -78v-507h-107v706z"/>
<glyph glyph-name="trademark" horiz-adv-x="736" unicode="™" d="M619 345l-2 230l3 36h-7l-84 -270h-73l-71 230l-11 39h-5l1 -39l3 -226h-78l13 358h109l75 -275l3 -28h5l4 28l82 275h99l18 -358h-84zM275 703l-10 -65h-79v-293h-93v293h-85v65h267z"/>
<glyph glyph-name="minus" d="M32 297v98h535v-98h-535z" unicode="−"/>
<glyph glyph-name="radical" horiz-adv-x="725" unicode="√" d="M368 173l264 686h197v-99h-112l-328 -806h-108l-116 404h-150v105h260l70 -290l5 -47h8z"/>
<glyph glyph-name="approxequal" d="M579 405l-55 -74l-39 34q-48 37 -72 37q-10 0 -18.5 -3.5t-13.5 -7t-15 -13t-15 -13.5q-27 -22 -44.5 -34t-48 -24.5t-59.5 -12.5q-47 0 -94 38t-74 76l67 70l25 -29q46 -49 76 -49q7 0 16.5 4t16 9t19 14.5t19.5 14.5q4 3 17.5 13t19 13.5t17.5 11.5t20 11.5t19.5 8 t22.5 6t22 1.5q48 0 95.5 -34t75.5 -68zM580 197l-55 -74l-39 34q-48 37 -72 37q-10 0 -18.5 -3.5t-13.5 -7t-15 -13t-15 -13.5q-27 -22 -44.5 -34t-48 -24.5t-59.5 -12.5q-47 0 -94 38t-74 76l67 70l25 -29q46 -49 76 -49q7 0 16.5 4t16 9t19 14.5t19.5 14.5q4 3 17.5 13 t19 13.5t17.5 11.5t20 11.5t19.5 8t22.5 6t22 1.5q48 0 95.5 -34t75.5 -68z" unicode="≈"/>
<glyph glyph-name="notequal" d="M255 379h105l-29 -79h-105zM189 201h106l-74 -201h-106zM397 478h-106l84 225h105z" unicode="≠"/>
<glyph glyph-name="lessequal" d="M70 0v98h464v-98h-464zM70 406l464 197v-119l-278 -108l278 -111v-120l-464 200v61z" unicode="≤"/>
<glyph glyph-name="greaterequal" d="M530 98v-98h-464v98h464zM66 603l464 -197v-61l-464 -200v120l278 111l-278 108v119z" unicode="≥"/>
<glyph glyph-name="uniE0A4" horiz-adv-x="0" unicode=""/>
<glyph glyph-name="uniF639" horiz-adv-x="589" unicode="" d="M196 352q0 -130 20 -194.5t78 -64.5q31 0 51 18t30 55t14 80t4 106t-4 105.5t-14 78.5t-30 53.5t-51 17.5q-58 0 -78 -63.5t-20 -191.5zM52 352q0 77 12 138.5t38.5 114t75 81.5t116.5 29t116.5 -29t75.5 -81t39 -114.5t12 -138.5t-12 -138t-38.5 -114.5t-75.5 -81.5 t-117 -29t-116.5 29t-75 81.5t-38.5 114t-12 138.5z"/>
<glyph glyph-name="uniF63A" horiz-adv-x="542" unicode="" d="M175 103l312 1v-104h-439v89q0 76 45.5 137t130.5 129q59 47 88.5 84.5t29.5 85.5q0 34 -22.5 62.5t-68.5 28.5q-77 0 -165 -45l-34 92q101 54 208 54q221 0 221 -190q0 -36 -13.5 -69.5t-41 -64t-51.5 -51t-62 -49.5q-33 -25 -51 -40.5t-41.5 -41t-34.5 -52t-11 -56.5z "/>
<glyph glyph-name="uniF63B" horiz-adv-x="563" unicode="" d="M83 587l-33 95q87 35 186 35q108 0 167.5 -43.5t59.5 -125.5q0 -52 -29.5 -85.5t-73.5 -49.5v-4q56 -17 80 -36q59 -49 59 -139q0 -117 -119 -182t-306 -65l-17 100q75 0 139.5 13.5t111.5 48.5t47 85q0 111 -117 111h-85v92h81q44 0 67 30t23 70t-26 60t-65 20 q-70 0 -150 -30z"/>
<glyph glyph-name="uniF63C" horiz-adv-x="593" unicode="" d="M326 517l-170 -244h170v244zM461 177v-177h-135v177h-299v77l321 452h113v-433h77l-16 -96h-61z"/>
<glyph glyph-name="uniF63D" horiz-adv-x="553" unicode="" d="M107 706h365v-104h-248l-12 -149q22 6 70 6q85 0 143.5 -57t58.5 -148q0 -68 -37.5 -121t-100 -83.5t-136 -46t-153.5 -15.5l-15 97q41 0 86 7.5t96 24.5t83.5 53t32.5 85q0 43 -23 78t-76 35q-40 0 -76 -10l-79 19z"/>
<glyph glyph-name="uniF63E" horiz-adv-x="604" unicode="" d="M317 359q-53 0 -113 -72q1 -113 23 -155.5t76 -42.5q48 0 75 37t27 107q0 126 -88 126zM469 708l-25 -94q-39 6 -77 6q-73 0 -117.5 -63.5t-47.5 -162.5q48 61 130 61q98 0 153 -57.5t55 -162.5q0 -109 -63 -177.5t-173 -68.5q-236 0 -236 314q0 189 81.5 302.5 t218.5 113.5q52 0 101 -11z"/>
<glyph glyph-name="uniF63F" horiz-adv-x="517" unicode="" d="M31 602v104h453v-81q-86 -82 -137.5 -247t-51.5 -378h-142q0 165 52.5 327.5t132.5 274.5h-307z"/>
<glyph glyph-name="uniF640" horiz-adv-x="614" unicode="" d="M418 181q0 81 -115 140q-54 -31 -85 -68t-31 -73q0 -45 32 -71.5t84 -26.5q53 0 84 30t31 69zM305 625q-47 0 -66 -25q-18 -22 -18 -55q0 -60 85 -111q84 53 84 111q0 35 -17 55q-20 25 -68 25zM303 719q60 0 102.5 -15.5t63 -41.5t29 -53t8.5 -59q0 -50 -37.5 -91.5 t-80.5 -65.5q75 -30 117.5 -81.5t42.5 -120.5q0 -101 -69.5 -152.5t-176.5 -51.5q-100 0 -164.5 49t-64.5 141q0 72 41 123t102 76q-53 25 -86 69.5t-33 99.5q0 72 49 123t157 51z"/>
<glyph glyph-name="uniF641" horiz-adv-x="610" unicode="" d="M290 348q64 0 115 53q-1 115 -24.5 167t-79.5 52q-98 0 -98 -145q0 -65 24 -96t63 -31zM143 -3l22 95q40 -4 75 -4q66 0 107.5 55.5t52.5 153.5q-46 -48 -121 -48q-98 0 -155 59t-57 164q0 108 62.5 177t171.5 69q123 0 182 -78t59 -237q0 -191 -79.5 -303t-222.5 -112 q-60 0 -97 9z"/>
<glyph glyph-name="uniF643" horiz-adv-x="571" unicode="" d="M172 267q0 -90 22.5 -132t81.5 -42q60 0 83 42.5t23 131.5q0 90 -23 132t-83 42q-59 0 -81.5 -42t-22.5 -132zM35 267q0 125 57 202.5t184 77.5q66 0 114.5 -22t75.5 -62t39.5 -88.5t12.5 -107.5q0 -124 -57 -201t-185 -77q-127 0 -184 77t-57 201z"/>
<glyph glyph-name="uniF644" horiz-adv-x="474" unicode="" d="M297 552l76 -4v-548h-129v390l-166 -91l-48 70z"/>
<glyph glyph-name="uniF645" horiz-adv-x="548" unicode="" d="M176 100h306v-100h-439v82q0 38 12 66.5t40.5 50.5t49 33t63.5 30l27 12q82 37 97 62q11 19 11 37q0 29 -19 51t-63 22q-34 0 -85.5 -14t-84.5 -32l-37 95q114 52 211 52q102 0 155.5 -44.5t53.5 -115.5q0 -35 -11 -63.5t-26 -47.5t-40.5 -35.5t-45 -26t-49.5 -20.5 q-90 -36 -111 -58q-14 -14 -15 -36z"/>
<glyph glyph-name="uniF646" horiz-adv-x="518" unicode="" d="M52 411l-36 90q107 46 209 46q203 0 203 -157q0 -47 -26 -81.5t-72 -48.5q138 -31 138 -177q0 -87 -61 -150.5t-159 -94t-220 -30.5l-17 96q80 0 149.5 17.5t119 60t49.5 102.5q0 106 -117 106h-84v90h80q38 0 60.5 28.5t22.5 68.5q0 70 -92 70q-59 0 -147 -36z"/>
<glyph glyph-name="uniF647" horiz-adv-x="552" unicode="" d="M306 337l-169 -237h169v237zM435 0v-184h-129v184h-309v74l340 461h98v-435h69l-15 -100h-54z"/>
<glyph glyph-name="uniF648" horiz-adv-x="542" unicode="" d="M217 435l-9 -134q30 5 68 5q91 0 144.5 -60.5t53.5 -160.5q0 -133 -124.5 -205t-314.5 -72l-17 96q51 0 102.5 9t101.5 28.5t81.5 57t31.5 87.5q0 49 -27 86.5t-77 37.5q-39 0 -88 -11l-60 18l16 318h365v-100h-247z"/>
<glyph glyph-name="uniF649" horiz-adv-x="589" unicode="" d="M318 352q-65 0 -118 -69q1 -192 94 -192q104 0 104 145q0 116 -80 116zM412 724l22 -87q-62 -16 -121 -53q-44 -28 -79.5 -85.5t-39.5 -122.5q49 73 147 73q85 0 136.5 -54t51.5 -158q0 -110 -62.5 -180t-172.5 -70q-106 0 -170 79t-64 222q0 75 21 144.5t63 129.5 t110.5 103t157.5 59z"/>
<glyph glyph-name="uniF64A" horiz-adv-x="494" unicode="" d="M8 433v103h450v-81q-78 -79 -135 -262.5t-57 -371.5h-138q0 160 51.5 325.5t134.5 286.5h-306z"/>
<glyph glyph-name="uniF64B" horiz-adv-x="572" unicode="" d="M392 182q0 74 -121 140q-110 -68 -110 -146q0 -48 30 -74t84 -26q55 0 86 31.5t31 74.5zM277 627q-44 0 -67 -29q-18 -22 -18 -55q0 -59 86 -111q84 53 84 111q0 36 -17 58q-21 26 -68 26zM276 716q196 0 196 -167q0 -75 -116 -155q161 -73 161 -203q0 -100 -70 -152 t-172 -52q-99 0 -162.5 49t-63.5 141q0 128 148 200q-54 26 -90 69.5t-36 97.5q0 72 49 122t156 50z"/>
<glyph glyph-name="uniF64C" horiz-adv-x="585" unicode="" d="M274 189q54 0 104 61q0 5 0.5 16t0.5 20q0 26 -3.5 51t-13 52.5t-30 44.5t-50.5 17q-97 0 -97 -133q0 -52 22.5 -90.5t66.5 -38.5zM179 -192l-31 90q68 16 135 71q44 36 67 83t28 83q-52 -54 -128 -54q-84 0 -144 60t-60 163q0 115 64.5 180.5t171.5 65.5q83 0 137 -42.5 t76.5 -110t22.5 -157.5q0 -98 -37 -191t-108 -149q-103 -81 -194 -92z"/>
<glyph glyph-name="uniF6DC" horiz-adv-x="471" unicode="" d="M273 706h104v-706h-135v528l-157 -127l-61 71z"/>
<glyph glyph-name="CR" horiz-adv-x="230"/>
<glyph glyph-name="_11" horiz-adv-x="500"/>
<glyph glyph-name="_26" horiz-adv-x="500"/>
<glyph glyph-name="Grave" d="M-55 926h127l99 -174h-95z" horiz-adv-x="500"/>
<glyph glyph-name="Acute" d="M48 926h127l-131 -174h-95z" horiz-adv-x="500"/>
</font>
</defs>
</svg>
