<svg xmlns="http://www.w3.org/2000/svg" width="275.9" height="50.7" viewBox="0 0 275.9 50.7"><path d="M58 11c0-1-.1-1.4-.5-1.9h5.9c4.2 0 6.6 1.9 6.6 5.3 0 3.5-2.5 5.6-6.6 5.6h-2v3c0 1 .1 1.4.5 1.9h-4.4c.4-.6.5-.9.5-1.9V11zm4.9-.1h-1.5V18h1.5c2.4 0 3.7-1.3 3.7-3.6 0-2.2-1.3-3.5-3.7-3.5zM77 24.6l-4.9-11c-.5-1.1-.9-1.8-1.4-2.3h4.8c-.4.7-.2 1.5 0 2.2l3.1 7.2 2.7-7.3c.2-.7.4-1.4.1-2.1h3.4c-.6.6-.8 1-1.2 2l-3.8 10c-1 2.7-2.3 5.1-5.5 5.1-1.5 0-2.6-.4-3.7-1.4l.9-1.9c.6.9 1.4 1.6 2.8 1.6 1.2.1 2.1-.7 2.7-2.1zm14.3.5c-3.6 0-6.5-2.3-6.5-7 0-4.1 2.9-7.1 7.3-7.1 1.8 0 2.8.4 3.7.4.4 0 .8-.1 1.2-.3l-1.3 3c-.7-.7-1.7-1.5-3.4-1.5-2.6 0-4.1 2.2-4.1 5.5 0 3.1 1.2 5.2 3.9 5.2 1.9 0 3.4-.9 4.3-2.1l.6 1.5c-1.5 1.6-3 2.4-5.7 2.4zm12.9 0c-3.6 0-6.5-2.3-6.5-7 0-4.1 2.9-7.1 7.3-7.1 1.8 0 2.8.4 3.7.4.4 0 .8-.1 1.2-.3l-1.3 3c-.7-.7-1.7-1.5-3.4-1.5-2.6 0-4.1 2.2-4.1 5.5 0 3.1 1.2 5.2 3.9 5.2 1.9 0 3.4-.9 4.3-2.1l.6 1.5c-1.5 1.6-3 2.4-5.7 2.4zm11.1-7.2L120 13c.8-.8.9-1.2.9-1.8h4.2c-1 .7-1.7 1.3-2.4 2l-4.1 4.1 4.4 5.4c1 1.2 1.4 1.6 2.4 2.2h-5.3c0-.6-.1-1-.6-1.6l-4.2-5.1V23c0 1 .1 1.4.5 1.9h-4.3c.4-.6.5-.9.5-1.9v-9.8c0-1-.1-1.4-.5-1.9h4.3c-.4.6-.5.9-.5 1.9v4.7zm20.7-4.7c0-1-.1-1.4-.5-1.9h4.3c-.4.6-.5.9-.5 1.9V23c0 1 .1 1.4.5 1.9h-4.3c.4-.6.5-.9.5-1.9v-6.6l-5.8 6.2v.4c0 1 .1 1.4.5 1.9h-4.3c.4-.6.5-.9.5-1.9v-9.8c0-1-.1-1.4-.5-1.9h4.3c-.4.6-.5.9-.5 1.9v6.6l5.8-6.2v-.4zm15.8 0c0-1-.1-1.4-.5-1.9h4.3c-.4.6-.5.9-.5 1.9V23c0 1 .1 1.4.5 1.9h-4.3c.4-.6.5-.9.5-1.9v-6.6l-5.8 6.2v.4c0 1 .1 1.4.5 1.9h-4.3c.4-.6.5-.9.5-1.9v-9.8c0-1-.1-1.4-.5-1.9h4.3c-.4.6-.5.9-.5 1.9v6.6l5.8-6.2v-.4zm-3.6-6c-.3.4-.4.8-.4 1.1 0 .4.3.8 1.2.8.9 0 1.2-.5 1.2-.8 0-.3-.1-.6-.4-1.1h1.3c.2.3.5.8.5 1.3 0 1.1-1 1.7-2.6 1.7s-2.6-.6-2.6-1.7c0-.5.3-1 .6-1.3h1.2zm28.2 5.2c-1.1-1.2-2.5-1.8-4.1-1.8-3.2 0-5 2.5-5 6.4 0 3.8 1.4 6.3 5.1 6.3 1.8 0 3.4-.9 4.6-2.2l.9 1.5c-1.7 1.5-3.2 2.5-6.4 2.5-4.8 0-7.9-2.9-7.9-8 0-4.6 3.3-8.2 8.4-8.2 2.2 0 3.1.4 4.5.4.6 0 1.1-.1 1.7-.5l-1.8 3.6zm4.3.6c-1.4 0-2 .1-3 .7l1.1-2.4h12.3l-1.1 2.4c-.4-.4-.9-.7-1.9-.7h-2.2v9.9c0 1 .1 1.4.5 1.9h-4.3c.4-.6.5-.9.5-1.9V13h-1.9zm18.3 8.9h-6l-.3.8c-.4 1-.5 1.4-.1 2.2h-3.3c.5-.6.9-1.2 1.3-2.1l4.4-10.2c-.3-.6-.5-.8-1-1.3h3.9l4.9 11.5c.4.9.7 1.5 1.4 2.1h-4.8c.4-.8.2-1.2-.1-2.2l-.3-.8zm-5.3-1.7h4.6l-2.2-5.7-2.4 5.7zm21.2-1.5h-5.8v4.2c0 1 .1 1.4.5 1.9h-4.3c.4-.6.5-.9.5-1.9v-9.8c0-1-.1-1.4-.5-1.9h4.3c-.4.6-.5.9-.5 1.9v3.8h5.8v-3.8c0-1-.1-1.4-.5-1.9h4.3c-.4.6-.5.9-.5 1.9v9.8c0 1 .1 1.4.5 1.9h-4.3c.4-.6.5-.9.5-1.9v-4.2zm17.4 3c0 1.1.4 1.9 1.7 2.2v2.4c-1.4-1-2.2-1.4-3.6-1.4h-7c-1.3 0-2.3.4-3.6 1.4v-2.4c2.5-.9 2.9-2.8 2.9-5.3v-5.4c0-1-.1-1.4-.5-1.9h10.7c-.4.6-.5.9-.5 1.9v8.5zm-7.5-2.9c0 2-.2 3.3-1 4.4h4.6c.5 0 .7-.4.7-.7V13h-3.6c-.5 0-.7.3-.7.7v5.1zm19.7 3.1h-5.9l-.3.8c-.4 1-.5 1.4-.1 2.2h-3.3c.5-.6.9-1.2 1.3-2.1l4.4-10.2c-.3-.6-.5-.8-1-1.3h3.9l4.9 11.5c.4.9.7 1.5 1.4 2.1H245c.4-.8.2-1.2-.1-2.2l-.4-.8zm-5.2-1.7h4.6l-2.2-5.7-2.4 5.7zm16.8-8.9c4.1 0 6.1 1.5 6.1 4.6 0 3-2.3 4.9-6.1 4.9h-1.7v2.3c0 1 .1 1.4.5 1.9h-4.3c.4-.6.5-.9.5-1.9v-9.8c0-1-.1-1.4-.5-1.9h5.5zm-1.7 1.6v6.3h1.2c2.2 0 3.3-1.1 3.3-3.2s-1.1-3-3.3-3h-1.2zM57.6 45.3c.4-.6.5-.9.5-1.9v-9.8c0-1-.1-1.4-.5-1.9h9.9l-1 2.3c-.4-.4-.9-.6-1.9-.6h-3.3v3.7h1.3c3.2 0 5.6 1 5.6 4.1 0 3.1-2.4 4.1-5.6 4.1h-5zm4.6-1.6c1.7 0 2.8-.7 2.8-2.5s-1.1-2.5-2.8-2.5h-1v5h1zm16.4-1.3h-5.9l-.3.8c-.4 1-.5 1.4-.1 2.2H69c.5-.6.9-1.2 1.3-2.1l4.4-10.2c-.3-.6-.5-.8-1-1.3h3.9l4.9 11.5c.4.9.7 1.5 1.4 2.1h-4.8c.4-.8.2-1.2-.1-2.2l-.4-.8zm-5.2-1.7H78L75.7 35l-2.3 5.7zm21.5-1.5h-5.8v4.2c0 1 .1 1.4.5 1.9h-4.3c.4-.6.5-.9.5-1.9v-9.8c0-1-.1-1.4-.5-1.9h4.3c-.4.6-.5.9-.5 1.9v3.8h5.8v-3.8c0-1-.1-1.4-.5-1.9h4.3c-.4.6-.5.9-.5 1.9v9.8c0 1 .1 1.4.5 1.9h-4.3c.4-.6.5-.9.5-1.9v-4.2zm10.4-.8l4.7-4.9c.8-.8.9-1.2.9-1.8h4.2c-1 .7-1.7 1.3-2.4 2l-4.1 4.1 4.4 5.4c1 1.2 1.4 1.6 2.4 2.2h-5.3c0-.6-.1-1-.6-1.6l-4.2-5.1v4.8c0 1 .1 1.4.5 1.9h-4.3c.4-.6.5-.9.5-1.9v-9.8c0-1-.1-1.4-.5-1.9h4.3c-.4.6-.5.9-.5 1.9v4.7zM265.6 13c-1.4 0-2 .1-3 .7l1.1-2.4H276l-1.1 2.4c-.5-.4-.9-.7-1.9-.7h-2.2v9.9c0 1 .1 1.4.5 1.9H267c.4-.6.5-.9.5-1.9V13h-1.9zM25.3 48C12.8 48 2.6 37.9 2.6 25.4c0-12.5 10.2-22.7 22.7-22.7C37.9 2.7 48 12.8 48 25.4 48 37.9 37.9 48 25.3 48m0-48C11.3 0 0 11.3 0 25.3s11.3 25.3 25.3 25.3 25.3-11.3 25.3-25.3C50.7 11.3 39.3 0 25.3 0zm5.6 34.3c2.1 2.3 1.8 6.5 1.1 8.4 0 .1-.1.3-.3.4-1.2.4-2.6.7-3.3.9 3.2-3 3.7-7.2 2.5-9.7zm11.9-2.7c-2.8-2.4-6.2-4.1-9.4-4.7 3.3 1.4 6.5 4.8 8.1 8.1.3-.5 1-1.7 1.5-3 0-.2-.1-.3-.2-.4zm1.4-6.2c0-.2-.1-.3-.1-.3-2-.8-3.2-1.1-3.2-1.1.5-.2.9-.8 1-1.2-1.2.6-2.7.8-3.6.8 1.8.7 4.2 2 5.9 3.4-.1-.6 0-1.2 0-1.6zm-10.3 6.7c.7.2 1.7.3 2.3 0-3.1-.8-4.8-5.2-11.9-5.8-.3 0-1 .1-.6-.6s3.2-2.6 3.2-2.6c-.5 0-2.9.2-3.6.3-.7.1-.9-.1-.9-.6 0 0-1.4 1.3-.7 2 .1.1.4.1.8 0 .3-.1.9-.3 1.3-.4 0 0 .1 0 .1.1-.2.3-.6.9-.7 1.2-.1.4-.2.6.5.8.6.2 3.9 1.2 5.9 2.6 2 1.3 6.7 5 6.4 11.8 1.1-.8 2.1-1.6 2.7-2.2.1-.1.1-.4.1-.4-.9-2-2.8-4.9-4.9-6.2zm7.3-14.2c-.3 1-1 1.6-1.4 1.7-.7.2-1.2 0-1.2 0-.2.2-.3.4-.5.5-.3.2-.4.1-.3-.1 0-.2 0-.3-.1-.5-.2-.3-.4 0-.7.1-.3.1-.4-.3-.4-.3-1.5-.3-2.2.5-2.2.5 1.1.2 1.6.9 1.7 1.2.1.3.7.3 1 .1.1-.1.3-.2.3.1 0 .1 0 .3-.1.5.5.3.7.3.5.6-.6 1-1.1.9-1.3.8-2.2-.8-4.3-1.1-5.6-1.2l.7-.7c-8.9 0-10.4 1.1-10.9 1.7-.3.4 0 1 0 1-1.1.2-3.7.7-4.9 1.7-1.1 1-1.2 3.1-1.2 3.9.5-.5 1.1-.9 1.7-1.2 1.2-.6 2.6-.5 4.4-.4.8 0 1.1.3 1.4.8.2.4-.3.4-.6.2-1.5-1-2.1.8-3.7.4.5.6 1.2.6 1.6.5 1.6-.6 2 0 2.1.2-1.1-.1-2.7.6-3.5.8-1 .2-2 .3-2 .3.7.8 1.6.8 2.3.8.7 0 3-.2 4.4 0 3.5.4 3.7 3.6 1.7 5.6 1.7-.5 2.3-2 2.3-2 1.2 5.4-3.8 8.3-7.9 7.5-2-.4-3.6-1.3-4.7-2.1-.9-.6-1.6-1.3-1.8-1.5 2.7.7 6.8.7 9.5-.5-5.4.1-9-1.3-11.5-2.7-1-.5-1.3-.8-1.6-1.4-.8-1.4-1.3-2.7-1.8-4.6 2.1 1.8 6.5 4.2 8.6 4.4-5.6-3.2-8.3-7.9-8.6-8.5-.2-.4-.6-.9-.6-1.9.1-1.4.5-3.4 1-4.8.7 1.9 2.3 5.3 4.3 6.9-2-4.2-2.3-9.5-2.2-10.5 0-.4.1-.8.5-1.3.5-.7 1.6-2.1 2.8-3.1-.2 1.5-.6 4.5-.1 7.4.8-4.5 2.5-8 3.7-9.6.2-.3.4-.5.9-.8.5-.3 2-.9 3.8-1.3-1.5 1.1-2.8 3.1-3.2 4.3C23 6.4 28 6.4 31 5.1c.7-.4 1 .1 1 .5-.1.5-.3 1.3-.3 1.3 1.8.4 2.6 1.3 2.6 1.3-.1-.2 0-.6 0-.6 2.5 2.2 3.3 3.9 3.2 5.2-.1 1.2.9 1.9 1.4 2.2.5.3 2.5 1.5 2.9 1.8.2.2-.2.8-.6 1.1zM30.1 6.5c-.7.5-1.5 1.1-2 2.2-.1.3 0 .5.3.3.6-.3 1.3-.5 1.3-.5-.2-.6.5-1.5.8-1.9.2-.1.1-.4-.4-.1zm6.1 5.3c-.2 1.3-.5 1.3-.8 1.2-.6-.2-1.6-.3-2-.2 1.1.9 1.8 2.4 1.8 2.4.1-.5-.2-1.2-.3-1.4-.1-.2 0-.2.2-.1.1 0 .5.1.6.2.4.1.4 0 .5-.4.2-.3.2-.9 0-1.7zm-12.9 6.1c.3-.1.9-.4 1.4-.6 0 0-.4 1.3-.3 3.5.8-.1 1.5-.2 2.4-.2-1.3-.5-1.3-3-.4-4.3.3-.4 0-.4-.4-.3-.5.1-.7.2-1.2.4 0 0 .2-3.4 3.2-6-2.7 1.1-4.8 5.1-4.7 7.5zm2-50.9C12.8-33 2.6-43.1 2.6-55.7c0-12.5 10.2-22.7 22.7-22.7C37.9-78.4 48-68.2 48-55.7 48-43.1 37.9-33 25.3-33m0-48C11.3-81 0-69.7 0-55.7s11.3 25.3 25.3 25.3 25.3-11.3 25.3-25.3c.1-14-11.3-25.3-25.3-25.3zm5.6 34.2c2.1 2.3 1.8 6.5 1.1 8.4 0 .1-.1.3-.3.4-1.2.4-2.6.7-3.3.9 3.2-2.9 3.7-7.1 2.5-9.7zm11.9-2.6c-2.8-2.4-6.2-4.1-9.4-4.7 3.3 1.4 6.5 4.8 8.1 8.1.3-.5 1-1.7 1.5-3 0-.2-.1-.3-.2-.4zm1.4-6.2c0-.2-.1-.3-.1-.3-2-.8-3.2-1.1-3.2-1.1.5-.2.9-.8 1-1.2-1.2.6-2.7.8-3.6.8 1.8.7 4.2 2 5.9 3.4-.1-.6 0-1.2 0-1.6zm-10.3 6.7c.7.2 1.7.3 2.3 0-3.1-.8-4.8-5.2-11.9-5.8-.3 0-1 .1-.6-.6s3.2-2.6 3.2-2.6c-.5 0-2.9.2-3.6.3-.7.1-.9-.1-.9-.6 0 0-1.4 1.3-.7 2 .1.1.4.1.8 0 .3-.1.9-.3 1.3-.4 0 0 .1 0 .1.1-.2.3-.6.9-.7 1.2-.1.4-.2.6.5.8.6.2 3.9 1.2 5.9 2.6 2 1.3 6.7 5 6.4 11.8 1.1-.8 2.1-1.6 2.7-2.2.1-.1.1-.4.1-.4-.9-2-2.8-4.9-4.9-6.2zm7.3-14.2c-.3 1-1 1.6-1.4 1.7-.7.2-1.2 0-1.2 0-.2.2-.3.4-.5.5-.3.2-.4.1-.3-.1 0-.2 0-.3-.1-.5-.2-.3-.4 0-.7.1-.3.1-.4-.3-.4-.3-1.5-.3-2.2.5-2.2.5 1.1.2 1.6.9 1.7 1.2.1.3.7.3 1 .1.1-.1.3-.2.3.1 0 .1 0 .3-.1.5.5.3.7.3.5.6-.6 1-1.1.9-1.3.8-2.2-.8-4.3-1.1-5.6-1.2l.7-.7c-8.9 0-10.4 1.1-10.9 1.7-.3.4 0 1 0 1-1.1.2-3.7.7-4.9 1.7-1.1 1-1.2 3.1-1.2 3.9.5-.5 1.1-.9 1.7-1.2 1.2-.6 2.6-.5 4.4-.4.8 0 1.1.3 1.4.8.2.4-.3.4-.6.2-1.5-1-2.1.8-3.7.4.5.6 1.2.6 1.6.5 1.6-.6 2 0 2.1.2-1.1-.1-2.7.6-3.5.8-1 .2-2 .3-2 .3.7.8 1.6.8 2.3.8.7 0 3-.2 4.4 0 3.5.4 3.7 3.6 1.7 5.6 1.7-.5 2.3-2 2.3-2 1.2 5.4-3.8 8.3-7.9 7.5-2-.4-3.6-1.3-4.7-2.1-.9-.6-1.6-1.3-1.8-1.5 2.7.7 6.8.7 9.5-.5-5.4.1-9-1.3-11.5-2.7-1-.5-1.3-.8-1.6-1.4-.8-1.4-1.3-2.7-1.8-4.6 2.1 1.8 6.5 4.2 8.6 4.4-5.6-3.2-8.3-7.9-8.6-8.5-.2-.4-.6-.9-.6-1.9.1-1.4.5-3.4 1-4.8.7 1.9 2.3 5.3 4.3 6.9-2-4.2-2.3-9.5-2.2-10.5 0-.4.1-.8.5-1.3.5-.7 1.6-2.1 2.8-3.1-.2 1.5-.6 4.5-.1 7.4.8-4.5 2.5-8 3.7-9.6.2-.3.4-.5.9-.8.5-.3 2-.9 3.8-1.3-1.5 1.1-2.8 3.1-3.2 4.3 5.2-5 10.2-5 13.2-6.3.6-.3.9.2.9.6-.1.5-.3 1.3-.3 1.3 1.8.4 2.6 1.3 2.6 1.3-.1-.2 0-.6 0-.6 2.5 2.2 3.3 3.9 3.2 5.2-.1 1.2.9 1.9 1.4 2.2.5.3 2.5 1.5 2.9 1.8.3.1-.1.7-.5 1zM30.1-74.5c-.7.5-1.5 1.1-2 2.2-.1.3 0 .5.3.3.6-.3 1.3-.5 1.3-.5-.2-.6.5-1.5.8-1.9.2-.1.1-.4-.4-.1zm6.1 5.3c-.2 1.3-.5 1.3-.8 1.2-.6-.2-1.6-.3-2-.2 1.1.9 1.8 2.4 1.8 2.4.1-.5-.2-1.2-.3-1.4-.1-.2 0-.2.2-.1.1 0 .5.1.6.2.4.1.4 0 .5-.4.2-.3.2-.9 0-1.7zm-12.9 6.1c.3-.1.9-.4 1.4-.6 0 0-.4 1.3-.3 3.5.8-.1 1.5-.2 2.4-.2-1.3-.5-1.3-3-.4-4.3.3-.4 0-.4-.4-.3-.5.1-.7.2-1.2.4 0 0 .2-3.4 3.2-6-2.7 1.1-4.8 5.1-4.7 7.5z" fill="#414042"/></svg>